{"glyphs":{"0":{"ha":989,"x_min":null,"x_max":null,"o":"m 856 176 b 733 990 1014 428 990 836 b 53 288 328 1232 -60 747 b 856 176 150 -107 639 -167 z m 438 703 b 658 664 490 792 611 756 b 589 321 711 564 675 394 b 438 703 418 174 321 510 z "},"1":{"ha":617,"x_min":null,"x_max":null,"o":"m 539 33 b 549 88 546 51 549 69 b 543 164 547 113 547 139 b 522 279 538 203 529 240 b 510 506 508 354 506 431 b 549 742 513 586 528 665 b 579 914 563 799 579 856 b 567 976 579 935 575 957 b 519 1028 558 997 539 1015 b 414 1061 489 1047 451 1056 b 346 1064 404 1063 356 1067 b 247 1022 310 1060 274 1046 b 138 900 207 985 171 943 b 49 769 104 858 72 817 b 17 636 28 728 7 681 b 93 554 25 599 58 565 b 183 542 122 543 154 540 b 174 425 179 503 176 464 b 178 168 169 339 167 253 b 217 40 183 124 196 79 b 299 -46 235 4 263 -32 b 336 -54 311 -50 324 -53 b 539 33 404 -61 513 -29 z "},"2":{"ha":917,"x_min":null,"x_max":null,"o":"m 821 38 b 774 324 904 125 892 307 b 617 324 721 331 668 328 b 361 1042 1065 618 897 1157 b 57 546 139 994 -22 757 b 363 643 122 371 415 464 b 436 764 342 715 360 758 b 513 610 513 771 544 679 b 149 353 453 474 261 449 b 92 88 74 289 33 165 b 418 -8 146 15 328 -6 b 821 38 538 -11 740 -50 z "},"3":{"ha":924,"x_min":null,"x_max":null,"o":"m 772 92 b 718 597 950 243 939 522 b 757 943 826 686 849 838 b 71 924 607 1115 228 1089 b 168 700 7 857 79 689 b 438 775 261 711 347 794 b 431 683 485 764 475 701 b 229 647 368 657 285 686 b 201 494 188 619 185 540 b 388 439 228 421 314 414 b 507 357 489 475 586 432 b 160 364 456 307 231 375 b 129 14 1 336 -7 100 b 772 92 297 -92 621 -36 z "},"4":{"ha":943,"x_min":null,"x_max":null,"o":"m 833 75 b 835 365 832 172 817 271 b 885 786 856 476 965 707 b 519 524 717 951 450 749 b 354 560 442 522 314 492 b 594 822 376 600 574 781 b 458 1038 644 921 568 1014 b 181 851 350 1061 247 940 b 188 228 19 640 -75 278 b 499 244 247 217 442 218 b 579 -8 506 156 513 50 b 833 75 671 -89 835 -47 z "},"5":{"ha":882,"x_min":null,"x_max":null,"o":"m 554 -1 b 669 533 833 125 921 413 b 379 574 582 575 465 528 b 436 674 343 593 392 693 b 817 694 572 611 753 561 b 819 942 849 758 868 888 b 644 996 778 986 706 996 b 188 926 524 996 253 1025 b 49 551 114 815 68 683 b 92 374 39 493 35 396 b 381 371 132 357 344 396 b 319 313 415 349 443 313 b 122 299 254 313 183 324 b 39 119 38 264 39 174 b 554 -1 42 -103 347 -94 z "},"6":{"ha":886,"x_min":null,"x_max":null,"o":"m 428 -42 b 844 507 706 -4 936 243 b 414 575 783 682 564 683 b 543 733 436 639 486 696 b 676 833 568 750 663 806 b 633 978 700 878 671 944 b 275 1011 535 1064 371 1099 b 32 360 154 901 29 522 b 428 -42 35 171 131 -81 z m 401 200 b 557 410 275 219 443 497 b 401 200 639 347 526 179 z "},"7":{"ha":825,"x_min":null,"x_max":null,"o":"m 432 -22 b 524 21 465 -19 501 -4 b 553 101 543 42 550 72 b 575 307 561 169 561 239 b 594 388 581 333 588 361 b 689 383 626 386 658 383 b 749 411 711 385 735 393 b 769 497 765 435 774 468 b 736 550 767 518 754 540 b 675 560 717 558 696 560 b 656 560 668 560 661 560 b 656 563 656 560 656 561 b 728 706 676 611 703 658 b 801 879 757 761 789 817 b 781 963 806 907 801 942 b 732 990 768 976 750 985 b 640 1008 701 999 671 1003 b 390 1036 557 1022 474 1028 b 257 1053 346 1040 301 1049 b 108 1026 206 1058 151 1051 b 47 965 83 1011 60 990 b 26 807 22 918 17 858 b 82 706 35 769 51 729 b 181 679 110 685 146 682 b 258 682 207 676 233 679 b 414 706 311 688 363 699 b 339 572 386 663 361 618 b 240 578 307 576 274 578 b 158 568 213 578 185 576 b 93 510 128 558 106 539 b 106 386 81 478 85 413 b 144 365 115 375 129 368 b 201 368 163 364 182 365 b 253 376 210 369 231 372 b 201 219 233 325 215 272 b 189 143 194 194 190 168 b 246 28 186 100 213 53 b 432 -22 297 -12 368 -28 z "},"8":{"ha":1006,"x_min":null,"x_max":null,"o":"m 896 132 b 836 592 1025 269 988 479 b 407 1036 1057 868 774 1119 b 83 671 211 992 26 864 b 160 549 97 625 119 574 b 158 38 -6 440 -7 150 b 896 132 369 -107 721 -54 z m 379 681 b 574 694 296 813 628 839 b 379 681 551 635 414 625 z m 383 410 b 647 417 418 504 621 528 b 383 410 690 242 315 225 z "},"9":{"ha":886,"x_min":null,"x_max":null,"o":"m 611 6 b 854 657 731 115 857 494 b 457 1058 850 844 756 1097 b 42 508 179 1021 -51 774 b 471 442 103 335 321 333 b 343 283 449 378 399 321 b 210 183 318 265 224 210 b 253 39 186 139 215 72 b 611 6 350 -47 514 -82 z m 328 607 b 485 817 247 669 360 838 b 328 607 611 797 442 519 z "},"\u0000":{"ha":0,"x_min":null,"x_max":null,"o":""},"\r":{"ha":611,"x_min":null,"x_max":null,"o":""}," ":{"ha":611,"x_min":null,"x_max":null,"o":""},"!":{"ha":532,"x_min":null,"x_max":null,"o":"m 275 350 b 342 399 303 357 326 376 b 428 585 381 456 401 522 b 458 653 438 608 449 629 b 496 746 471 683 486 714 b 511 867 506 785 514 826 b 481 944 508 894 497 924 b 397 1006 460 972 429 992 b 224 1019 344 1031 281 1032 b 164 996 203 1015 181 1008 b 119 931 143 979 129 954 b 71 625 78 836 69 728 b 78 519 71 590 72 554 b 111 407 85 481 90 440 b 131 379 118 399 122 388 b 275 350 158 356 240 342 z m 247 -32 b 344 51 288 -19 325 14 b 313 246 374 111 365 206 b 128 256 263 282 183 283 b 78 219 110 247 94 233 b 38 126 53 197 42 160 b 46 44 33 99 32 68 b 247 -32 79 -18 179 -51 z "},"\"":{"ha":575,"x_min":null,"x_max":null,"o":"m 421 688 b 450 699 432 689 442 693 b 504 772 475 717 493 744 b 549 976 531 836 549 907 b 525 1026 549 994 540 1017 b 371 1042 499 1042 401 1044 b 313 1000 344 1040 313 1028 b 314 983 313 994 314 989 b 322 717 314 894 317 806 b 346 688 322 701 331 692 b 421 688 358 685 408 685 z m 139 683 b 168 696 149 686 160 689 b 222 768 193 714 210 740 b 267 972 249 832 267 903 b 243 1022 265 990 258 1013 b 89 1039 217 1039 119 1040 b 31 996 61 1038 31 1024 b 32 979 31 990 32 985 b 39 714 32 890 35 801 b 64 685 40 697 49 688 b 139 683 76 682 126 682 z "},"#":{"ha":1128,"x_min":null,"x_max":null,"o":"m 838 -8 b 881 32 856 0 871 14 b 899 124 894 60 899 93 b 993 115 931 124 961 115 b 1038 128 1008 114 1026 118 b 1076 256 1064 147 1075 224 b 1063 314 1076 276 1074 297 b 983 363 1044 339 1013 356 b 940 367 968 365 954 365 b 943 408 943 381 942 394 b 950 450 946 422 947 436 b 996 442 965 446 981 443 b 1064 456 1019 439 1047 440 b 1089 576 1086 478 1094 544 b 1040 613 1085 596 1061 608 b 988 621 1025 615 1006 619 b 1047 797 1004 681 1029 739 b 1058 871 1054 821 1061 846 b 1044 911 1057 885 1053 900 b 944 985 1021 946 982 968 b 856 1008 917 997 886 1004 b 776 1000 831 1013 801 1011 b 721 946 753 989 735 968 b 669 785 694 896 679 840 b 656 700 664 757 660 728 b 542 724 618 708 581 717 b 576 850 554 765 567 808 b 583 919 582 872 586 897 b 531 993 579 949 554 974 b 419 1042 499 1018 460 1039 b 304 1010 379 1043 336 1033 b 240 922 275 989 253 957 b 213 826 229 892 219 858 b 122 822 182 832 143 831 b 89 790 108 817 96 804 b 67 721 78 769 71 744 b 67 660 64 701 61 679 b 108 617 74 642 90 626 b 169 592 128 606 149 597 b 157 499 165 561 161 529 b 96 500 138 501 115 504 b 61 482 82 497 69 490 b 39 439 50 471 43 454 b 29 353 31 411 26 382 b 136 268 33 306 83 281 b 128 188 133 242 131 215 b 138 61 124 146 121 100 b 185 13 147 40 165 22 b 296 -6 219 -3 258 -6 b 354 -1 315 -6 335 -6 b 411 33 375 4 397 17 b 439 93 425 50 433 72 b 450 226 447 138 449 182 b 610 188 501 207 556 197 b 610 103 607 158 607 131 b 635 35 611 78 619 53 b 739 -12 661 7 701 -6 b 838 -8 772 -18 807 -21 z m 504 432 b 486 436 500 433 493 435 b 490 489 488 454 489 471 b 494 532 490 503 493 517 b 632 500 540 518 586 508 b 629 407 631 469 629 439 b 504 432 588 415 546 424 z "},"$":{"ha":789,"x_min":null,"x_max":null,"o":"m 558 -39 b 571 7 574 -26 578 -12 b 550 61 563 24 554 42 b 543 90 547 67 546 78 b 685 185 596 111 644 142 b 636 572 799 306 779 490 b 418 606 572 608 489 586 b 506 676 344 642 399 697 b 631 658 547 668 590 646 b 644 900 743 690 747 843 b 444 935 588 931 515 942 b 440 953 442 943 440 950 b 422 1049 438 979 444 1038 b 332 1038 404 1057 350 1042 b 264 1025 310 1032 286 1032 b 228 989 247 1021 229 1006 b 263 878 228 968 246 915 b 186 815 232 861 207 839 b 349 426 10 608 97 426 b 349 357 489 426 450 331 b 78 381 288 374 121 426 b 367 57 -89 199 129 51 b 374 18 369 44 372 31 b 382 -36 375 0 375 -19 b 414 -65 388 -50 399 -61 b 558 -39 449 -75 529 -60 z "},"%":{"ha":1592,"x_min":null,"x_max":null,"o":"m 671 -21 b 731 14 693 -15 715 -3 b 788 117 757 43 772 81 b 1115 764 879 340 981 563 b 1178 865 1138 796 1161 829 b 1190 954 1190 892 1199 925 b 1140 1028 1183 983 1164 1010 b 1079 1060 1124 1043 1101 1051 b 989 1074 1051 1071 1018 1081 b 921 1026 963 1067 939 1047 b 867 954 900 1004 883 979 b 782 821 838 911 810 865 b 585 426 706 696 642 563 b 514 256 561 369 536 313 b 482 133 500 215 486 175 b 497 47 478 104 481 72 b 671 -21 529 3 617 -33 z m 568 554 b 608 844 615 640 643 753 b 35 804 508 1106 140 1063 b 79 515 -1 714 19 593 b 568 554 189 369 478 393 z m 264 668 b 361 808 229 736 286 804 b 363 663 439 814 429 701 b 264 668 328 643 282 633 z m 1518 138 b 1558 428 1565 222 1593 336 b 985 386 1458 688 1090 646 b 1029 99 949 297 969 175 b 1518 138 1139 -47 1428 -24 z m 1214 251 b 1311 392 1181 318 1236 386 b 1313 246 1389 397 1379 285 b 1214 251 1278 225 1232 217 z "},"&":{"ha":1053,"x_min":null,"x_max":null,"o":"m 1014 -57 b 964 336 1089 10 975 236 b 949 515 961 368 965 488 b 693 525 906 589 750 588 b 632 364 654 482 669 408 b 415 331 586 306 469 282 b 465 501 357 383 386 486 b 586 526 485 506 569 517 b 590 679 640 554 642 657 b 464 743 546 697 490 704 b 558 824 419 808 483 869 b 660 624 613 792 606 654 b 864 675 721 589 835 611 b 868 883 893 739 860 814 b 874 1153 876 942 908 1104 b 547 1101 811 1243 588 1204 b 538 992 539 1081 553 986 b 214 990 435 1025 315 1029 b 197 574 18 918 -3 638 b 242 8 -39 449 -4 114 b 713 94 394 -58 592 -22 b 725 -61 714 65 710 -36 b 1014 -57 778 -142 943 -122 z "},"'":{"ha":293,"x_min":null,"x_max":null,"o":"m 139 681 b 168 693 149 682 160 686 b 222 765 193 710 210 738 b 267 969 249 829 267 900 b 243 1019 265 988 258 1010 b 89 1036 217 1035 119 1038 b 31 993 61 1033 31 1021 b 32 976 31 988 32 982 b 39 711 32 888 35 799 b 64 681 40 694 49 685 b 139 681 76 678 126 678 z "},"(":{"ha":665,"x_min":null,"x_max":null,"o":"m 649 136 b 442 326 636 214 500 229 b 440 735 349 478 389 638 b 628 996 490 829 590 896 b 367 1193 679 1129 488 1274 b 54 340 106 1022 -8 635 b 342 -64 89 181 197 22 b 649 136 500 -156 678 -39 z "},")":{"ha":660,"x_min":null,"x_max":null,"o":"m 318 -64 b 606 340 464 22 572 181 b 294 1193 669 635 554 1022 b 32 996 174 1274 -18 1129 b 219 735 71 896 171 829 b 219 326 271 638 311 478 b 11 136 160 229 24 214 b 318 -64 -17 -39 160 -156 z "},"*":{"ha":708,"x_min":null,"x_max":null,"o":"m 265 442 b 347 597 290 461 326 547 b 347 597 347 597 347 597 b 411 485 368 560 388 521 b 443 449 419 472 431 458 b 518 436 464 432 492 428 b 593 490 547 444 572 468 b 632 565 611 513 631 538 b 603 626 635 588 619 611 b 535 682 581 647 557 664 b 519 694 532 685 526 689 b 579 706 540 699 560 701 b 653 739 606 713 632 722 b 679 781 665 749 676 764 b 617 924 690 828 660 900 b 546 926 596 935 568 933 b 465 881 517 917 490 900 b 482 943 471 901 476 922 b 496 1013 489 965 496 989 b 483 1050 496 1025 492 1039 b 446 1074 474 1061 460 1068 b 256 1043 396 1094 294 1081 b 233 954 233 1022 226 983 b 253 892 238 932 244 913 b 246 899 250 894 249 896 b 167 944 224 919 197 939 b 97 921 143 949 117 936 b 42 853 74 904 51 881 b 28 783 33 831 29 807 b 46 715 26 760 31 733 b 106 689 60 699 83 693 b 178 685 129 686 153 685 b 86 594 143 658 111 629 b 68 539 74 579 65 558 b 206 433 76 492 160 447 b 265 442 225 428 250 429 z "},"+":{"ha":843,"x_min":null,"x_max":null,"o":"m 547 238 b 575 446 568 278 574 360 b 751 454 646 444 725 443 b 768 719 843 492 857 676 b 569 744 729 739 653 744 b 525 965 571 842 579 922 b 307 956 475 1004 357 993 b 261 735 257 919 254 828 b 42 686 164 735 83 742 b 53 468 3 636 15 519 b 276 426 90 419 183 418 b 282 258 274 358 272 283 b 547 238 318 165 503 149 z "},",":{"ha":431,"x_min":null,"x_max":null,"o":"m 297 -103 b 321 -78 307 -96 314 -87 b 385 271 390 11 424 161 b 89 310 350 375 169 389 b 144 6 -11 214 10 39 b 201 0 164 0 183 -1 b 201 -1 201 0 201 -1 b 192 -75 196 -25 189 -50 b 297 -103 199 -122 260 -132 z "},"-":{"ha":757,"x_min":null,"x_max":null,"o":"m 410 408 b 664 414 451 411 626 396 b 679 679 744 451 756 636 b 246 694 597 724 339 694 b 46 646 157 694 83 703 b 57 428 14 596 24 479 b 410 408 113 343 308 400 z "},".":{"ha":369,"x_min":null,"x_max":null,"o":"m 335 213 b 81 267 304 304 153 336 b 131 -4 -8 181 11 26 b 335 213 260 -37 379 86 z "},"/":{"ha":701,"x_min":null,"x_max":null,"o":"m 213 -35 b 244 -14 225 -31 236 -24 b 274 53 258 4 265 29 b 307 157 285 88 294 122 b 338 249 317 188 328 218 b 444 503 365 336 406 419 b 571 749 483 586 525 668 b 638 856 592 785 617 819 b 683 943 654 885 674 911 b 521 1107 710 1031 610 1085 b 464 1110 503 1111 482 1115 b 417 1074 444 1104 428 1090 b 371 1003 400 1051 385 1026 b 233 763 321 925 275 844 b 150 565 201 699 176 632 b 58 293 114 476 83 385 b 26 161 46 249 36 206 b 15 67 18 131 10 99 b 57 7 19 43 38 21 b 213 -35 89 -17 175 -47 z "},":":{"ha":394,"x_min":null,"x_max":null,"o":"m 350 743 b 96 797 318 835 168 867 b 146 526 7 711 26 557 b 350 743 275 493 394 617 z m 346 325 b 92 379 315 417 164 449 b 142 108 3 293 22 139 b 346 325 271 75 390 199 z "},";":{"ha":450,"x_min":null,"x_max":null,"o":"m 393 768 b 106 829 357 871 188 907 b 163 524 6 732 28 558 b 393 768 307 488 442 625 z m 307 -65 b 331 -40 317 -58 324 -49 b 394 310 400 50 433 200 b 99 349 360 413 179 428 b 154 44 -1 253 19 78 b 211 38 174 39 193 38 b 211 38 211 38 211 38 b 201 -37 206 13 199 -12 b 307 -65 208 -85 269 -94 z "},"<":{"ha":628,"x_min":null,"x_max":null,"o":"m 460 99 b 578 347 567 119 618 244 b 351 469 547 426 429 432 b 567 624 364 514 518 524 b 422 867 622 738 540 899 b 40 540 308 835 131 742 b 89 278 4 460 35 349 b 460 99 158 188 347 75 z "},"=":{"ha":619,"x_min":null,"x_max":null,"o":"m 332 610 b 532 614 365 613 501 601 b 543 810 594 642 604 778 b 204 821 479 843 278 821 b 49 786 136 821 78 828 b 57 625 24 749 32 663 b 332 610 100 563 254 604 z m 335 317 b 533 322 367 319 503 308 b 544 517 596 349 606 486 b 206 528 481 550 279 528 b 50 493 138 528 79 535 b 58 332 25 456 33 369 b 335 317 101 269 256 311 z "},">":{"ha":626,"x_min":null,"x_max":null,"o":"m 539 278 b 586 540 592 349 622 460 b 204 867 497 742 318 835 b 60 624 86 899 4 738 b 275 469 108 524 264 514 b 50 347 199 432 81 426 b 168 99 10 244 61 119 b 539 278 281 75 469 188 z "},"?":{"ha":914,"x_min":null,"x_max":null,"o":"m 507 311 b 554 429 539 338 521 403 b 675 453 565 438 660 450 b 586 1053 1039 518 917 989 b 54 935 365 1096 147 1039 b 228 656 -51 817 82 601 b 408 785 261 669 304 751 b 526 735 485 808 526 775 b 319 640 526 628 390 667 b 311 293 176 588 169 333 b 507 311 358 279 468 278 z m 560 68 b 263 201 586 213 389 276 b 271 -89 147 132 147 -40 b 560 68 371 -131 542 -37 z "},"@":{"ha":1369,"x_min":null,"x_max":null,"o":"m 1043 -89 b 1163 54 1111 -56 1163 -15 b 997 165 1163 132 1078 189 b 468 172 828 119 629 108 b 300 546 339 225 285 417 b 1094 608 353 999 1107 1056 b 999 542 1093 549 1040 497 b 839 749 938 606 940 714 b 406 367 583 840 282 639 b 811 390 492 176 708 265 b 1301 432 883 160 1218 207 b 479 1056 1499 965 932 1225 b 389 -78 -71 850 -132 171 b 1043 -89 533 -147 899 -160 z m 635 500 b 717 485 643 671 892 599 b 635 500 682 461 632 461 z "},"A":{"ha":986,"x_min":null,"x_max":null,"o":"m 357 71 b 546 67 419 61 483 60 b 910 7 589 -76 794 -87 b 890 631 1032 106 926 478 b 414 1076 821 917 681 1200 b 282 914 350 1047 308 978 b 53 311 201 715 117 517 b 40 7 29 233 -14 67 b 357 71 143 -110 324 -74 z m 513 660 b 540 315 542 549 542 431 b 403 304 494 311 449 304 b 513 660 429 425 458 549 z "},"B":{"ha":1013,"x_min":null,"x_max":null,"o":"m 476 -46 b 954 194 654 -29 865 40 b 932 508 1010 290 1019 440 b 788 586 889 542 839 569 b 233 1068 1143 840 638 1235 b 74 235 -26 961 24 513 b 138 10 88 158 90 72 b 476 -46 193 -62 386 -54 z m 349 731 b 538 774 383 785 481 804 b 435 654 604 736 510 668 b 349 731 374 643 315 678 z m 356 288 b 563 394 282 360 461 411 b 515 274 651 379 603 299 b 356 288 475 263 385 258 z "},"C":{"ha":936,"x_min":null,"x_max":null,"o":"m 886 203 b 810 465 931 318 928 424 b 424 431 688 507 531 357 b 503 721 311 508 371 729 b 640 661 553 717 599 692 b 829 939 825 529 1007 797 b 22 563 515 1190 53 964 b 185 86 8 396 53 190 b 886 203 418 -96 796 -35 z "},"D":{"ha":1039,"x_min":null,"x_max":null,"o":"m 585 -49 b 563 1056 1178 99 1163 940 b 47 825 354 1094 97 1031 b 194 -19 -1 621 58 142 b 585 -49 265 -103 478 -75 z m 438 733 b 489 292 658 735 694 392 b 438 733 363 231 265 733 z "},"E":{"ha":822,"x_min":null,"x_max":null,"o":"m 583 -17 b 760 89 649 3 728 28 b 729 357 794 157 778 297 b 382 350 672 425 469 353 b 379 458 344 349 342 457 b 617 476 424 460 579 453 b 610 661 668 510 669 644 b 400 663 571 672 442 663 b 414 753 400 663 356 742 b 715 736 468 763 661 719 b 746 1015 815 769 838 963 b 525 1046 682 1053 600 1046 b 194 1004 454 1047 249 1050 b 110 811 142 958 132 878 b 92 40 51 625 -28 193 b 583 -17 182 -76 443 -60 z "},"F":{"ha":906,"x_min":null,"x_max":null,"o":"m 485 68 b 447 276 474 117 426 231 b 738 276 496 276 692 258 b 757 546 843 318 857 501 b 447 575 663 588 547 550 b 451 714 397 588 406 699 b 746 644 496 729 700 640 b 892 836 829 651 885 753 b 621 1053 903 961 744 1032 b 272 1085 506 1072 388 1107 b 46 406 17 1033 21 665 b 201 -96 57 281 97 -26 b 485 68 331 -182 522 -83 z "},"G":{"ha":1125,"x_min":null,"x_max":null,"o":"m 994 268 b 1079 349 1003 292 1067 324 b 1067 610 1118 424 1131 556 b 607 597 983 681 715 617 b 636 303 444 567 471 308 b 426 364 638 156 471 225 b 453 726 389 479 393 621 b 538 799 471 757 504 807 b 656 650 599 782 597 674 b 931 806 785 601 972 675 b 107 824 810 1179 307 1161 b 28 374 31 692 14 525 b 994 268 79 -160 810 -235 z "},"H":{"ha":1104,"x_min":null,"x_max":null,"o":"m 324 -103 b 461 -36 374 -93 426 -74 b 504 83 489 -6 501 42 b 485 336 508 168 486 251 b 635 340 535 333 586 336 b 640 342 636 340 639 342 b 640 336 640 339 640 338 b 639 119 636 264 636 192 b 681 -7 639 75 650 26 b 804 -58 711 -39 760 -56 b 953 -39 854 -61 907 -60 b 1015 13 978 -29 1001 -10 b 1051 118 1036 43 1046 82 b 1058 219 1057 151 1057 186 b 1056 519 1061 319 1058 419 b 1040 789 1053 610 1050 699 b 957 1081 1028 893 1051 1021 b 692 1046 889 1125 740 1111 b 646 903 663 1006 651 953 b 639 704 639 836 640 771 b 639 613 639 688 638 646 b 593 607 624 611 608 608 b 454 596 546 603 500 600 b 446 596 451 596 449 596 b 460 697 451 629 456 664 b 488 939 471 778 488 858 b 469 1028 488 969 483 1000 b 426 1072 460 1046 444 1061 b 332 1106 399 1090 365 1100 b 219 1114 294 1113 257 1118 b 154 1085 196 1111 172 1100 b 107 1007 132 1064 117 1036 b 63 761 81 928 71 844 b 42 428 50 650 43 539 b 68 64 40 306 42 183 b 126 -40 76 25 99 -14 b 324 -103 176 -89 256 -115 z "},"I":{"ha":556,"x_min":null,"x_max":null,"o":"m 538 192 b 394 521 514 308 418 403 b 436 914 369 650 421 783 b 146 1057 456 1071 269 1156 b 42 656 71 997 49 751 b 163 4 31 489 32 108 b 538 192 319 -122 579 -6 z "},"J":{"ha":865,"x_min":null,"x_max":null,"o":"m 728 81 b 822 756 835 281 842 529 b 660 1089 811 892 794 1065 b 393 828 471 1122 318 1004 b 429 363 440 714 504 461 b 261 382 399 324 310 368 b 128 6 29 451 -87 117 b 728 81 322 -94 626 -112 z "},"K":{"ha":1050,"x_min":null,"x_max":null,"o":"m 446 7 b 454 368 533 67 476 264 b 728 -3 540 360 656 42 b 1008 225 881 -99 1068 56 b 767 503 967 340 867 432 b 915 1111 979 656 1154 1007 b 665 1032 817 1154 696 1135 b 460 686 629 903 579 747 b 444 1061 465 758 478 997 b 93 1063 389 1165 147 1167 b 93 75 6 892 46 261 b 446 7 136 -96 300 -93 z "},"L":{"ha":700,"x_min":null,"x_max":null,"o":"m 239 -79 b 590 1 357 -61 479 -50 b 656 47 614 13 639 26 b 681 107 669 64 676 86 b 575 349 700 207 674 328 b 499 349 550 354 524 350 b 410 313 467 346 438 328 b 379 294 400 307 389 301 b 463 632 406 407 432 521 b 528 918 488 726 519 821 b 525 981 529 939 529 960 b 483 1049 519 1007 504 1033 b 278 1107 426 1092 349 1107 b 171 1092 242 1107 206 1103 b 117 1046 149 1085 129 1067 b 89 979 104 1025 94 1003 b 53 721 64 896 58 807 b 57 151 43 531 38 340 b 78 25 63 110 67 67 b 136 -64 86 -10 106 -46 b 239 -79 165 -82 204 -85 z "},"M":{"ha":1210,"x_min":null,"x_max":null,"o":"m 1025 11 b 1164 744 1178 140 1201 549 b 1057 963 1149 824 1115 907 b 586 788 915 1094 690 950 b 33 317 376 1231 -24 986 b 272 -43 44 181 138 -24 b 496 43 351 -54 456 -26 b 461 425 536 114 475 344 b 768 481 557 319 693 360 b 715 49 763 336 679 189 b 1025 11 751 -89 917 -81 z "},"N":{"ha":1240,"x_min":null,"x_max":null,"o":"m 953 -1 b 1207 626 1208 58 1207 447 b 1119 1003 1207 767 1183 878 b 776 972 1072 1093 842 1094 b 811 393 713 853 796 528 b 276 978 685 653 529 1121 b 144 829 210 940 176 897 b 250 -3 -12 489 -58 -19 b 471 458 453 8 482 256 b 953 -1 567 250 728 -54 z "},"O":{"ha":1097,"x_min":null,"x_max":null,"o":"m 875 96 b 932 949 1103 333 1167 719 b 129 835 715 1160 306 1101 b 161 96 -1 636 -43 301 b 875 96 354 -99 696 -92 z m 472 342 b 456 675 335 368 365 568 b 682 635 529 764 661 749 b 472 342 710 476 629 313 z "},"P":{"ha":988,"x_min":null,"x_max":null,"o":"m 504 119 b 444 258 493 168 469 215 b 892 913 821 158 1126 600 b 117 899 719 1143 275 1136 b 49 325 11 738 22 515 b 157 -35 60 247 100 18 b 504 119 294 -161 542 -62 z m 381 663 b 472 776 389 714 424 758 b 576 621 564 811 635 699 b 381 663 497 517 363 532 z "},"Q":{"ha":1100,"x_min":null,"x_max":null,"o":"m 818 -162 b 932 -62 864 -143 903 -104 b 947 39 951 -35 960 7 b 900 104 938 64 919 85 b 892 113 899 107 894 110 b 932 949 1106 351 1161 725 b 129 835 715 1160 306 1101 b 161 96 -1 636 -43 301 b 611 -39 279 -22 453 -67 b 628 -65 615 -49 622 -57 b 703 -151 649 -97 671 -131 b 818 -162 735 -174 782 -179 z m 575 400 b 522 429 561 414 542 426 b 461 417 501 432 479 426 b 407 379 451 413 418 389 b 456 675 350 447 385 590 b 682 635 529 764 661 749 b 604 371 700 529 671 422 b 575 400 594 381 586 392 z "},"R":{"ha":999,"x_min":null,"x_max":null,"o":"m 504 119 b 472 207 497 150 486 179 b 618 63 524 163 571 113 b 764 -17 656 22 708 -17 b 933 113 829 -17 914 49 b 938 201 943 140 944 172 b 908 253 933 221 924 239 b 838 301 888 272 863 288 b 793 324 822 310 807 317 b 892 913 968 451 1044 710 b 117 899 719 1143 275 1136 b 49 325 11 738 22 515 b 157 -35 60 247 100 18 b 504 119 294 -161 542 -62 z m 381 663 b 472 776 389 714 424 758 b 576 621 564 811 635 699 b 381 663 497 517 363 532 z "},"S":{"ha":958,"x_min":null,"x_max":null,"o":"m 849 126 b 788 611 990 276 967 508 b 515 653 708 657 604 629 b 624 742 422 699 490 768 b 781 718 675 732 729 704 b 799 1021 921 760 928 950 b 224 915 629 1115 350 1064 b 428 429 4 656 113 429 b 428 343 603 429 556 310 b 89 371 351 363 142 429 b 849 126 -222 32 535 -208 z "},"T":{"ha":921,"x_min":null,"x_max":null,"o":"m 594 -44 b 675 -24 622 -42 650 -36 b 763 63 713 -6 744 26 b 782 163 779 93 782 129 b 771 267 781 197 776 232 b 718 588 756 374 736 481 b 685 775 707 650 694 713 b 742 788 704 778 735 785 b 847 814 778 796 815 797 b 888 857 865 824 879 840 b 906 954 901 888 906 921 b 890 1042 906 983 903 1014 b 854 1088 883 1058 871 1075 b 751 1121 826 1108 788 1115 b 550 1122 685 1129 617 1125 b 294 1100 464 1117 378 1115 b 183 1081 257 1093 219 1089 b 90 1051 151 1074 118 1067 b 35 1004 68 1040 47 1025 b 14 914 18 976 14 944 b 46 754 14 860 21 803 b 119 683 61 724 88 696 b 204 682 146 672 178 674 b 340 736 251 694 296 715 b 344 713 342 726 344 718 b 360 526 356 651 358 589 b 353 129 365 394 353 261 b 372 28 353 94 356 58 b 432 -24 385 6 408 -11 b 594 -44 481 -46 540 -51 z "},"U":{"ha":1063,"x_min":null,"x_max":null,"o":"m 964 185 b 979 965 1040 314 1056 824 b 644 954 921 1069 707 1047 b 654 432 594 881 672 519 b 446 392 635 331 515 315 b 496 944 375 468 521 843 b 174 1015 467 1060 263 1100 b 26 431 74 918 21 569 b 99 151 31 335 46 232 b 964 185 288 -137 792 -111 z "},"V":{"ha":1131,"x_min":null,"x_max":null,"o":"m 783 3 b 904 239 840 71 874 157 b 1115 964 951 371 1138 826 b 825 1111 1094 1092 947 1157 b 631 404 656 1047 685 431 b 475 968 532 429 529 781 b 39 944 419 1160 143 1128 b 174 358 -43 800 99 506 b 783 3 313 86 586 -232 z "},"W":{"ha":1321,"x_min":null,"x_max":null,"o":"m 349 -24 b 613 328 439 6 564 244 b 1206 114 726 31 1081 -179 b 1240 574 1233 181 1232 501 b 1303 882 1251 678 1304 776 b 960 997 1301 1035 1088 1083 b 883 506 860 928 881 628 b 708 772 860 554 801 767 b 404 475 571 782 461 564 b 467 910 425 568 497 772 b 160 997 442 1026 257 1067 b 36 435 28 906 25 596 b 349 -24 53 215 139 -92 z "},"X":{"ha":1058,"x_min":null,"x_max":null,"o":"m 297 -74 b 540 232 354 -39 500 178 b 750 -22 619 157 657 36 b 1010 132 849 -85 1008 10 b 753 542 1011 231 811 461 b 1044 856 829 617 1057 749 b 776 1061 1026 993 903 1119 b 529 826 674 1014 606 911 b 229 1057 464 931 347 1092 b 54 758 100 1018 11 886 b 256 504 88 656 172 574 b 22 58 175 401 -18 182 b 297 -74 54 -37 210 -125 z "},"Y":{"ha":946,"x_min":null,"x_max":null,"o":"m 490 -29 b 593 4 526 -25 560 -11 b 654 53 617 15 640 32 b 672 117 667 72 671 94 b 646 461 685 232 646 346 b 682 600 646 508 656 558 b 836 793 726 668 779 732 b 921 904 868 828 904 863 b 931 967 928 924 933 946 b 747 1122 921 1032 818 1106 b 663 1117 719 1128 689 1125 b 556 1033 618 1101 582 1069 b 489 900 526 993 508 946 b 442 781 472 861 456 821 b 435 763 439 775 436 768 b 372 935 414 819 394 878 b 325 1026 361 967 346 999 b 258 1075 310 1047 286 1068 b 139 1063 219 1083 176 1075 b 43 1008 103 1051 65 1036 b 17 942 26 990 18 965 b 31 843 13 908 21 875 b 199 565 60 742 126 649 b 290 478 226 533 254 501 b 281 429 286 458 283 440 b 249 263 269 374 258 318 b 236 110 240 213 233 161 b 264 36 238 85 246 57 b 336 -11 282 15 308 0 b 490 -29 383 -29 439 -37 z "},"Z":{"ha":950,"x_min":null,"x_max":null,"o":"m 610 7 b 842 67 689 19 772 28 b 872 418 946 124 958 338 b 575 390 810 479 654 426 b 864 1067 724 583 1025 882 b 600 1113 822 1114 664 1113 b 117 1044 507 1111 196 1096 b 117 656 -7 964 -22 703 b 513 713 194 629 433 693 b 124 349 397 578 235 488 b 104 -1 44 253 36 100 b 610 7 185 -124 465 -14 z "},"[":{"ha":664,"x_min":null,"x_max":null,"o":"m 318 -201 b 557 -160 399 -197 486 -200 b 600 -99 579 -147 597 -124 b 551 121 608 -39 601 85 b 514 131 542 128 526 131 b 393 133 489 132 413 118 b 381 168 388 139 382 160 b 368 411 368 249 369 331 b 386 976 365 600 368 789 b 390 999 388 983 389 992 b 439 988 406 994 422 988 b 582 1008 488 985 539 988 b 626 1050 600 1018 618 1032 b 650 1176 647 1088 650 1133 b 629 1265 651 1207 650 1244 b 560 1297 611 1283 585 1292 b 521 1306 547 1300 535 1304 b 428 1307 490 1308 458 1307 b 203 1292 353 1306 276 1301 b 135 1267 179 1288 153 1282 b 99 1201 117 1250 107 1225 b 74 1049 85 1153 79 1100 b 53 407 49 836 53 621 b 81 -78 53 244 53 81 b 107 -143 85 -101 92 -125 b 179 -186 125 -165 153 -178 b 318 -201 224 -201 271 -204 z "},"\\":{"ha":661,"x_min":null,"x_max":null,"o":"m 607 7 b 649 67 626 21 644 43 b 639 161 654 99 646 131 b 607 293 628 206 618 249 b 515 565 582 385 550 476 b 431 763 489 632 463 699 b 294 1003 389 844 343 925 b 249 1074 279 1026 265 1051 b 201 1110 236 1090 219 1104 b 143 1107 182 1115 163 1111 b -19 943 54 1085 -46 1031 b 26 856 -10 911 10 885 b 93 749 49 819 72 785 b 219 503 139 668 181 586 b 326 249 258 419 299 336 b 358 157 336 218 347 188 b 392 53 369 122 379 88 b 421 -14 399 29 406 4 b 451 -35 428 -24 440 -31 b 607 7 490 -47 575 -17 z "},"]":{"ha":664,"x_min":null,"x_max":null,"o":"m 238 -201 b 463 -186 313 -200 388 -197 b 529 -161 486 -183 511 -176 b 565 -97 547 -144 558 -121 b 592 56 581 -47 586 4 b 611 699 615 268 611 485 b 583 1183 613 861 613 1024 b 558 1247 579 1206 572 1229 b 485 1292 540 1269 513 1282 b 347 1307 442 1307 393 1308 b 107 1265 265 1303 178 1306 b 64 1204 86 1253 68 1229 b 113 985 56 1143 64 1021 b 151 974 124 976 138 975 b 271 972 175 974 253 988 b 283 938 278 967 283 944 b 297 693 296 857 296 775 b 278 129 300 506 297 317 b 274 106 276 121 276 114 b 226 118 258 111 243 117 b 82 96 178 121 126 117 b 38 56 64 88 47 74 b 14 -72 17 17 15 -29 b 36 -161 14 -103 14 -139 b 104 -192 54 -179 79 -187 b 144 -200 118 -194 131 -199 b 238 -201 175 -204 206 -201 z "},"^":{"ha":707,"x_min":null,"x_max":null,"o":"m 683 643 b 529 975 679 710 564 918 b 213 994 447 1110 325 1114 b 25 653 161 939 39 728 b 293 569 -4 503 233 428 b 360 772 319 635 336 706 b 461 506 378 707 399 533 b 683 643 563 457 689 536 z "},"_":{"ha":924,"x_min":null,"x_max":null,"o":"m 389 -53 b 835 -44 429 -50 799 -61 b 850 208 913 -10 924 167 b 232 219 772 251 321 219 b 43 174 149 219 78 229 b 53 -33 11 126 22 14 b 389 -53 106 -114 293 -61 z "},"`":{"ha":303,"x_min":null,"x_max":null,"o":"m 278 754 b 279 799 283 767 283 785 b 236 883 271 829 254 857 b 125 982 215 915 164 982 b 31 919 94 981 46 946 b 44 829 14 890 18 849 b 135 783 72 808 106 800 b 203 735 160 769 178 746 b 278 754 231 721 264 726 z "},"a":{"ha":965,"x_min":null,"x_max":null,"o":"m 882 53 b 918 319 940 124 926 231 b 907 739 903 458 974 614 b 115 713 750 1031 306 985 b 557 86 -126 365 99 -189 b 882 53 642 -21 796 -53 z m 450 339 b 606 599 286 422 399 728 b 450 339 694 544 583 269 z "},"b":{"ha":1072,"x_min":null,"x_max":null,"o":"m 503 19 b 1038 588 831 -133 1144 256 b 488 694 965 810 669 849 b 511 900 497 763 515 832 b 58 900 497 1140 96 1139 b 122 99 21 653 3 321 b 503 19 201 -47 385 -100 z m 490 247 b 542 486 385 286 439 413 b 490 247 743 628 739 156 z "},"c":{"ha":968,"x_min":null,"x_max":null,"o":"m 867 97 b 619 513 1038 361 843 583 b 397 457 550 490 433 392 b 556 683 354 536 438 683 b 735 583 643 683 636 583 b 931 808 894 583 988 681 b 64 649 775 1157 221 976 b 328 -4 -58 390 56 82 b 867 97 526 -67 772 -47 z "},"d":{"ha":1094,"x_min":null,"x_max":null,"o":"m 969 169 b 993 465 964 215 986 419 b 1058 1022 1014 586 1124 919 b 814 1097 1019 1083 885 1106 b 622 788 683 1083 629 918 b 63 603 447 988 157 851 b 104 93 14 478 -25 257 b 647 101 235 -72 475 -19 b 854 -60 663 8 761 -64 b 969 169 963 -57 985 61 z m 451 311 b 574 565 274 339 431 721 b 451 311 639 493 578 292 z "},"e":{"ha":913,"x_min":null,"x_max":null,"o":"m 699 -7 b 847 361 854 47 958 240 b 626 356 797 415 692 392 b 399 422 524 297 393 317 b 864 676 622 376 863 449 b 221 858 864 978 468 1032 b 42 261 57 743 -29 449 b 699 -7 136 7 444 -96 z m 389 586 b 589 731 349 693 507 804 b 389 586 682 646 443 499 z "},"f":{"ha":790,"x_min":null,"x_max":null,"o":"m 456 -133 b 535 -50 489 -115 519 -85 b 551 97 556 -6 558 49 b 501 353 540 183 518 268 b 499 364 500 357 500 361 b 615 351 538 363 576 354 b 710 361 647 347 681 347 b 733 381 719 365 728 372 b 742 529 751 411 751 496 b 710 569 736 546 725 561 b 635 588 688 583 661 586 b 486 582 585 590 535 588 b 460 579 482 582 471 581 b 456 722 453 626 443 676 b 460 733 456 725 457 733 b 539 711 488 735 513 719 b 636 694 569 699 603 690 b 744 761 678 699 721 725 b 744 983 782 819 789 931 b 656 1028 724 1010 688 1021 b 379 1053 567 1050 471 1061 b 238 1013 331 1049 281 1038 b 128 889 190 985 150 940 b 111 793 115 860 111 826 b 122 582 108 722 113 651 b 128 544 124 569 126 557 b 85 543 111 544 94 544 b 36 518 67 540 49 532 b 14 461 22 503 15 481 b 25 376 13 432 15 403 b 69 328 32 357 49 336 b 151 328 94 318 124 322 b 160 42 160 232 164 136 b 168 -51 160 10 160 -21 b 201 -111 174 -74 185 -96 b 456 -133 258 -165 386 -171 z "},"g":{"ha":1029,"x_min":null,"x_max":null,"o":"m 865 -58 b 939 899 1046 228 1013 726 b 686 911 881 1033 763 999 b 172 939 578 1042 307 1047 b 82 838 138 911 106 878 b 228 303 -31 649 3 393 b 331 286 260 289 296 286 b 632 414 444 286 549 340 b 622 275 635 361 633 313 b 429 186 590 164 535 140 b 215 268 360 218 292 278 b 156 -142 35 246 22 -17 b 865 -58 368 -343 710 -307 z m 364 594 b 376 721 325 628 335 690 b 581 685 440 767 568 775 b 364 594 594 585 440 532 z "},"h":{"ha":1113,"x_min":null,"x_max":null,"o":"m 1050 36 b 1094 261 1097 97 1100 185 b 650 725 1071 561 932 829 b 429 592 600 707 428 590 b 503 999 501 761 529 933 b 85 967 442 1149 147 1126 b 51 363 11 778 22 561 b 307 -3 72 217 136 -3 b 576 381 533 -3 485 257 b 697 158 656 486 747 431 b 1050 36 660 -42 946 -100 z "},"i":{"ha":535,"x_min":null,"x_max":null,"o":"m 501 794 b 474 978 540 850 522 932 b 179 956 389 1057 256 1044 b 283 713 97 860 157 725 b 501 794 360 706 454 728 z m 464 132 b 419 378 492 210 431 296 b 435 569 413 442 433 506 b 244 663 439 656 329 693 b 65 435 153 629 110 521 b 35 99 22 356 -15 175 b 464 132 128 -42 410 -19 z "},"j":{"ha":810,"x_min":null,"x_max":null,"o":"m 624 832 b 579 1019 657 890 632 978 b 250 956 489 1092 314 1057 b 332 726 189 857 194 740 b 624 832 419 717 578 757 z m 656 614 b 297 507 556 742 313 669 b 353 197 289 428 428 224 b 92 147 281 172 178 215 b 135 -242 -7 68 -32 -181 b 656 614 676 -436 997 176 z "},"k":{"ha":954,"x_min":null,"x_max":null,"o":"m 888 181 b 575 424 864 283 669 376 b 929 683 735 453 881 528 b 604 831 997 893 713 972 b 421 658 542 747 542 650 b 461 924 432 707 478 875 b 113 968 421 1051 196 1081 b 40 210 28 854 35 351 b 406 190 54 -151 367 -46 b 636 -19 457 119 564 32 b 888 181 738 -90 925 22 z "},"l":{"ha":524,"x_min":null,"x_max":null,"o":"m 460 83 b 407 215 478 133 457 178 b 435 618 344 331 403 488 b 490 1001 456 710 546 925 b 218 1061 438 1075 306 1088 b 43 407 13 996 14 650 b 192 29 60 272 89 117 b 460 83 288 -54 418 -35 z "},"m":{"ha":1225,"x_min":null,"x_max":null,"o":"m 1151 89 b 1157 700 1233 206 1192 561 b 833 967 1113 875 983 1065 b 597 650 779 931 636 700 b 529 856 575 718 558 789 b 154 889 461 1010 253 1024 b 28 404 56 754 35 571 b 86 83 25 296 19 169 b 413 68 153 -3 344 -17 b 426 386 457 124 435 315 b 540 251 456 336 488 279 b 769 465 647 194 711 358 b 754 172 767 368 753 269 b 1151 89 757 0 1047 -61 z "},"n":{"ha":1221,"x_min":null,"x_max":null,"o":"m 478 176 b 465 446 481 267 465 357 b 639 590 465 597 567 661 b 731 133 699 533 700 210 b 1135 364 857 -187 1401 64 b 1085 685 1063 444 1097 576 b 454 772 1051 1001 653 969 b 75 772 401 1000 136 997 b 44 192 25 585 14 386 b 478 176 88 -90 467 -108 z "},"o":{"ha":976,"x_min":null,"x_max":null,"o":"m 960 592 b 681 947 958 767 861 890 b 203 43 210 1097 -257 314 b 960 592 590 -185 964 168 z m 475 632 b 489 381 658 767 714 417 b 475 632 343 357 356 544 z "},"p":{"ha":939,"x_min":null,"x_max":null,"o":"m 531 -28 b 492 285 569 75 403 324 b 824 881 843 140 1063 585 b 235 944 700 1033 407 1039 b 93 118 -60 783 17 382 b 192 -76 104 81 165 -47 b 531 -28 293 -189 478 -169 z m 365 651 b 574 714 342 810 568 814 b 365 651 579 601 390 496 z "},"q":{"ha":1071,"x_min":null,"x_max":null,"o":"m 1014 35 b 950 836 1051 282 1069 614 b 569 915 871 982 688 1035 b 35 347 242 1069 -72 681 b 585 240 107 126 403 88 b 561 35 575 172 557 104 b 1014 35 575 -206 976 -203 z m 582 688 b 531 450 688 650 633 522 b 582 688 329 307 333 779 z "},"r":{"ha":868,"x_min":null,"x_max":null,"o":"m 444 85 b 417 532 514 254 356 426 b 664 514 515 703 569 518 b 803 835 861 504 901 732 b 349 851 672 968 483 982 b 274 922 347 850 294 910 b 53 760 171 981 75 875 b 100 85 10 538 19 296 b 444 85 158 -68 383 -67 z "},"s":{"ha":881,"x_min":null,"x_max":null,"o":"m 524 -129 b 861 307 724 -90 863 108 b 529 660 860 508 694 583 b 564 719 471 686 510 732 b 635 693 589 714 610 700 b 811 885 761 657 824 772 b 575 1018 799 997 668 1017 b 90 810 397 1022 161 986 b 343 483 21 635 150 525 b 275 367 563 435 447 282 b 19 93 82 461 -10 256 b 524 -129 57 -121 335 -165 z "},"t":{"ha":696,"x_min":null,"x_max":null,"o":"m 653 63 b 567 254 656 132 594 190 b 542 560 525 349 531 454 b 608 556 564 554 588 553 b 660 576 626 557 646 564 b 676 713 689 606 694 675 b 638 746 668 729 656 740 b 564 753 614 753 589 754 b 565 832 565 779 567 806 b 401 1022 560 947 511 1004 b 153 721 244 1050 174 882 b 118 726 142 724 131 726 b 25 694 85 726 47 719 b 1 617 6 675 0 644 b 44 525 4 583 18 544 b 67 513 51 519 58 515 b 143 524 83 510 119 514 b 269 -56 146 318 176 43 b 653 63 400 -192 643 -126 z "},"u":{"ha":1017,"x_min":null,"x_max":null,"o":"m 976 231 b 950 825 989 338 988 725 b 653 850 904 951 715 967 b 633 535 603 757 646 639 b 442 438 622 435 500 357 b 510 681 397 499 481 610 b 144 788 618 950 244 1014 b 108 124 14 603 -46 290 b 590 124 233 -14 453 -1 b 976 231 697 -93 949 -8 z "},"v":{"ha":981,"x_min":null,"x_max":null,"o":"m 649 82 b 776 460 704 203 726 336 b 922 714 814 550 861 638 b 654 918 1081 911 781 1061 b 463 544 563 813 501 679 b 399 907 438 665 433 790 b 244 979 383 957 296 978 b 207 186 -114 992 7 482 b 649 82 321 15 561 -104 z "},"w":{"ha":1289,"x_min":null,"x_max":null,"o":"m 413 32 b 607 289 497 99 547 200 b 889 -1 689 182 757 31 b 1135 122 978 -24 1085 44 b 1239 876 1235 281 1307 704 b 947 922 1201 971 1015 999 b 889 428 889 856 914 513 b 700 783 832 486 772 747 b 406 453 558 856 511 572 b 397 860 372 510 411 794 b 82 876 374 974 131 986 b 29 546 39 776 31 656 b 128 65 28 383 40 203 b 413 32 190 -31 324 -37 z "},"x":{"ha":965,"x_min":null,"x_max":null,"o":"m 946 114 b 729 557 957 251 804 440 b 908 742 792 615 864 668 b 835 1017 968 839 931 957 b 518 838 721 1090 597 949 b 356 968 471 889 421 943 b 131 628 172 1036 -8 764 b 279 499 178 582 229 542 b 15 92 199 418 -3 203 b 267 -19 31 -6 190 -75 b 468 224 304 8 443 183 b 672 -53 493 163 608 -40 b 946 114 803 -79 935 -18 z "},"y":{"ha":1053,"x_min":null,"x_max":null,"o":"m 890 -65 b 964 858 1071 211 1038 693 b 606 796 893 1019 619 911 b 610 722 604 778 606 753 b 426 726 621 569 435 553 b 414 889 424 781 424 835 b 197 1017 397 985 321 1038 b 18 793 68 996 -6 935 b 49 653 26 746 38 699 b 283 294 81 513 126 339 b 657 396 417 256 558 301 b 647 256 661 343 660 293 b 454 171 615 149 560 126 b 240 250 385 201 317 258 b 181 -146 60 228 47 -25 b 890 -65 393 -340 735 -306 z "},"z":{"ha":867,"x_min":null,"x_max":null,"o":"m 775 26 b 701 336 879 132 849 356 b 468 303 675 333 458 288 b 699 488 493 344 657 463 b 800 849 857 586 881 743 b 443 940 740 924 538 951 b 22 636 222 917 -25 853 b 161 489 40 558 82 481 b 539 632 281 503 539 729 b 153 343 547 572 203 388 b 56 106 89 286 47 190 b 333 -35 67 0 228 -25 b 775 26 439 -44 700 -50 z "},"{":{"ha":718,"x_min":null,"x_max":null,"o":"m 610 -200 b 488 64 738 -94 653 88 b 410 507 425 200 528 415 b 500 599 408 507 489 567 b 500 1057 525 668 456 999 b 643 1088 515 1076 624 1075 b 686 1286 719 1140 713 1228 b 372 1343 647 1378 471 1356 b 99 811 128 1313 57 1053 b 90 621 110 749 140 660 b 31 528 60 599 21 564 b 114 399 44 479 107 449 b 115 -83 135 239 53 64 b 610 -200 179 -237 481 -308 z "},"}":{"ha":621,"x_min":null,"x_max":null,"o":"m 506 -83 b 507 399 568 64 486 239 b 590 528 514 449 576 479 b 531 621 600 564 561 599 b 522 811 481 660 511 749 b 249 1343 564 1053 493 1313 b -65 1286 150 1356 -26 1378 b -22 1088 -92 1228 -99 1140 b 121 1057 -1 1075 106 1076 b 121 599 165 999 96 668 b 211 507 132 567 213 507 b 133 64 93 415 196 200 b 11 -200 -32 88 -117 -94 b 506 -83 140 -308 442 -237 z "},"~":{"ha":1019,"x_min":null,"x_max":null,"o":"m 857 361 b 993 576 883 399 985 533 b 817 743 1014 681 919 769 b 650 586 742 725 722 607 b 488 689 596 571 521 643 b 85 617 390 825 192 746 b 325 347 -85 414 154 144 b 411 419 346 371 383 438 b 857 361 547 332 719 175 z "}," ":{"ha":611,"x_min":null,"x_max":null,"o":""},"¡":{"ha":490,"x_min":null,"x_max":null,"o":"m 364 493 b 414 529 383 503 399 515 b 456 624 439 551 451 589 b 447 704 458 650 460 681 b 246 781 413 767 314 800 b 149 697 204 768 167 736 b 181 503 119 638 126 543 b 364 493 229 467 310 465 z m 269 -271 b 328 -247 290 -265 311 -260 b 374 -181 349 -231 363 -206 b 422 124 414 -86 424 21 b 414 229 422 158 419 194 b 381 342 407 268 401 308 b 361 369 375 351 369 361 b 217 399 333 393 253 407 b 150 350 190 393 165 372 b 64 164 111 293 90 226 b 33 96 54 142 43 119 b -3 3 21 65 6 35 b -18 -118 -14 -36 -22 -78 b 11 -196 -17 -146 -6 -174 b 94 -257 33 -222 64 -242 b 269 -271 147 -282 213 -283 z "},"¢":{"ha":826,"x_min":null,"x_max":null,"o":"m 658 3 b 663 94 674 29 668 64 b 651 146 661 104 657 129 b 760 250 699 169 738 204 b 515 564 872 483 690 646 b 339 496 461 539 374 447 b 446 697 296 557 349 685 b 603 635 517 706 521 625 b 739 839 732 651 800 739 b 500 964 683 931 594 968 b 494 1019 497 982 497 1001 b 475 1081 493 1040 489 1065 b 431 1100 464 1093 447 1099 b 354 1088 406 1101 379 1094 b 251 1028 317 1078 275 1061 b 243 974 240 1014 240 992 b 269 888 249 944 257 915 b 46 618 168 824 82 726 b 329 111 -28 394 97 153 b 414 101 357 106 386 103 b 417 78 415 92 417 82 b 425 7 419 54 421 31 b 443 -28 428 -6 433 -18 b 506 -56 458 -43 482 -51 b 658 3 554 -64 636 -42 z "},"£":{"ha":956,"x_min":null,"x_max":null,"o":"m 790 3 b 864 360 919 22 975 283 b 565 407 826 386 608 390 b 513 451 544 415 526 431 b 550 449 528 450 544 450 b 585 451 563 449 574 449 b 610 469 594 454 603 461 b 618 556 622 489 628 535 b 578 583 610 569 594 579 b 469 588 543 590 506 592 b 528 753 465 654 485 722 b 604 643 589 794 589 715 b 839 615 624 549 793 529 b 172 683 1060 1031 247 1272 b 174 578 169 651 171 615 b 99 586 149 583 124 589 b 50 542 72 582 57 568 b 81 418 42 500 42 435 b 181 422 97 411 149 418 b 121 322 176 379 160 342 b 76 40 18 269 -7 110 b 403 35 133 -7 329 31 b 790 3 454 38 739 -4 z "},"¤":{"ha":979,"x_min":null,"x_max":null,"o":"m 793 86 b 872 151 825 99 853 122 b 894 211 885 168 896 190 b 858 278 893 236 875 260 b 788 342 836 301 813 321 b 767 357 781 347 774 353 b 815 690 821 456 853 585 b 824 693 818 692 821 692 b 868 707 839 697 853 703 b 911 725 883 711 899 715 b 953 771 928 738 946 751 b 950 839 961 792 958 818 b 908 907 940 864 926 889 b 768 922 874 943 808 951 b 700 846 740 901 721 874 b 292 839 585 929 419 922 b 176 957 263 886 217 954 b 58 883 139 960 79 914 b 39 828 47 868 39 847 b 90 729 39 790 63 753 b 150 681 110 711 131 697 b 136 650 144 671 140 660 b 163 346 97 557 113 436 b 142 335 156 342 149 338 b 54 274 110 318 76 303 b 56 144 26 239 26 179 b 113 103 69 126 92 114 b 189 88 135 90 164 78 b 306 221 219 100 278 183 b 597 221 394 185 504 186 b 617 192 604 210 613 197 b 672 114 635 165 651 139 b 718 81 685 100 700 86 b 793 86 742 72 769 76 z m 407 489 b 521 656 365 569 432 649 b 522 482 613 661 601 529 b 407 489 482 458 428 447 z "},"¥":{"ha":975,"x_min":null,"x_max":null,"o":"m 511 -29 b 614 4 547 -25 581 -11 b 675 53 638 15 661 32 b 693 117 688 72 692 94 b 694 201 696 146 696 174 b 836 207 764 203 824 204 b 850 361 910 229 921 336 b 672 374 825 369 756 374 b 668 418 671 389 669 404 b 826 424 746 418 813 419 b 840 578 900 446 911 553 b 697 590 818 585 765 589 b 703 600 699 593 701 597 b 857 793 747 668 800 732 b 942 904 889 828 925 863 b 951 967 949 924 954 946 b 768 1122 942 1032 839 1106 b 683 1117 740 1128 710 1125 b 576 1033 639 1101 603 1069 b 510 900 547 993 529 946 b 463 781 493 861 476 821 b 456 763 460 775 457 768 b 393 935 435 819 415 878 b 346 1026 382 967 367 999 b 279 1075 331 1047 307 1068 b 160 1063 240 1083 197 1075 b 64 1008 124 1051 86 1036 b 38 942 47 990 39 965 b 51 843 33 908 42 875 b 203 585 78 749 136 663 b 65 557 143 585 93 583 b 75 431 36 528 46 460 b 299 411 111 397 210 403 b 289 368 296 396 292 382 b 257 368 276 368 265 368 b 75 340 176 368 110 374 b 85 214 46 311 56 243 b 260 190 114 186 186 185 b 257 110 257 164 256 136 b 285 36 258 85 267 57 b 357 -11 303 15 329 0 b 511 -29 404 -29 460 -37 z "},"¦":{"ha":403,"x_min":null,"x_max":null,"o":"m 282 540 b 336 751 313 572 331 708 b 338 974 346 825 374 907 b 82 985 297 1049 136 1056 b 67 588 26 911 50 675 b 282 540 85 492 214 467 z m 344 -51 b 343 171 381 15 353 97 b 289 382 338 213 319 349 b 74 335 221 454 93 429 b 89 -62 57 247 33 10 b 344 -51 143 -135 304 -128 z "},"§":{"ha":910,"x_min":null,"x_max":null,"o":"m 754 -125 b 774 283 856 -28 883 199 b 774 597 903 367 904 524 b 446 794 676 651 410 689 b 576 824 472 872 558 903 b 717 726 592 757 650 713 b 835 950 826 750 888 854 b 294 1082 735 1135 483 1178 b 172 640 132 999 71 793 b 125 218 4 558 -18 338 b 418 149 201 154 321 163 b 404 97 453 143 446 100 b 204 129 332 100 276 119 b 75 -106 85 143 26 6 b 357 -217 110 -185 271 -215 b 754 -125 493 -219 657 -219 z m 518 346 b 318 418 449 353 331 350 b 571 413 297 533 560 529 b 518 346 576 361 568 340 z "},"¨":{"ha":382,"x_min":null,"x_max":null,"o":"m 360 872 b 228 899 344 929 264 946 b 258 772 199 861 204 785 b 360 872 319 758 376 813 z m 168 868 b 36 894 153 925 72 940 b 68 768 7 857 14 781 b 168 868 129 754 185 808 z "},"©":{"ha":1149,"x_min":null,"x_max":null,"o":"m 797 15 b 1042 833 1096 167 1204 576 b 246 943 886 1082 482 1125 b 47 324 74 813 0 536 b 797 15 121 -7 494 -137 z m 301 210 b 351 840 135 379 178 676 b 803 860 442 925 647 951 b 890 335 999 742 968 494 b 747 175 858 271 804 218 b 301 210 622 81 411 99 z m 763 274 b 618 517 863 429 749 558 b 488 485 576 504 508 447 b 581 617 461 531 511 617 b 685 558 632 617 628 558 b 800 690 778 558 833 615 b 292 597 708 894 383 789 b 447 214 219 444 286 264 b 763 274 563 178 707 189 z "},"«":{"ha":753,"x_min":null,"x_max":null,"o":"m 331 103 b 390 189 351 114 383 165 b 368 253 397 214 390 236 b 289 310 342 272 315 290 b 213 393 258 332 225 358 b 217 401 211 396 215 400 b 251 440 229 415 240 428 b 357 551 288 478 326 511 b 389 610 371 569 385 588 b 363 676 393 633 378 658 b 326 708 357 682 335 706 b 297 713 318 713 307 714 b 126 590 251 710 157 624 b 26 428 83 544 43 489 b 24 399 24 418 25 408 b 168 181 18 333 118 224 b 228 128 188 163 207 144 b 268 97 240 117 253 104 b 331 103 288 89 313 93 z m 660 88 b 719 174 681 99 713 151 b 697 239 726 200 719 222 b 618 294 671 258 644 276 b 542 379 588 318 554 343 b 546 388 540 382 544 385 b 581 426 558 400 569 414 b 686 538 617 463 656 497 b 718 596 700 554 714 574 b 692 661 722 618 707 643 b 656 694 686 668 664 690 b 626 699 647 699 636 700 b 456 576 581 694 486 610 b 356 413 413 529 372 475 b 353 385 353 404 354 394 b 497 165 346 319 447 208 b 557 114 517 149 536 131 b 597 83 569 103 582 90 b 660 88 617 74 642 78 z "},"¬":{"ha":922,"x_min":null,"x_max":null,"o":"m 822 261 b 871 321 846 271 863 296 b 882 382 878 340 879 361 b 883 539 885 413 888 481 b 835 699 894 603 879 674 b 246 718 754 744 339 718 b 46 669 157 718 83 726 b 57 451 14 619 24 503 b 410 432 113 368 308 424 b 692 426 436 433 581 426 b 692 422 692 425 692 424 b 708 322 693 389 696 354 b 731 283 713 308 721 294 b 822 261 753 261 793 250 z "},"­":{"ha":0,"x_min":null,"x_max":null,"o":""},"®":{"ha":865,"x_min":null,"x_max":null,"o":"m 599 268 b 779 874 819 381 899 683 b 189 956 664 1057 364 1089 b 43 496 61 858 7 653 b 599 268 97 251 374 154 z m 231 413 b 267 879 107 538 139 758 b 601 893 335 942 488 961 b 667 504 747 806 724 622 b 561 386 643 457 603 418 b 231 413 468 315 313 329 z m 433 506 b 422 539 432 517 426 528 b 476 483 442 521 460 503 b 532 454 492 468 511 454 b 596 503 556 454 588 479 b 597 536 599 513 600 525 b 586 556 596 543 592 550 b 558 574 578 563 568 568 b 543 582 554 576 549 579 b 579 803 608 631 638 726 b 289 797 515 890 347 888 b 263 582 249 738 253 654 b 304 447 267 553 282 467 b 433 506 354 400 449 438 z m 388 708 b 422 751 390 728 404 744 b 461 693 457 765 483 724 b 388 708 431 654 381 660 z "},"¯":{"ha":469,"x_min":null,"x_max":null,"o":"m 358 772 b 407 781 375 774 392 774 b 443 814 422 786 438 799 b 431 938 451 843 449 913 b 382 968 419 954 400 964 b 310 974 358 972 335 972 b 261 974 294 974 278 974 b 100 964 207 972 153 974 b 50 946 82 961 65 956 b 22 883 32 933 21 906 b 25 865 22 876 25 871 b 42 794 22 840 26 813 b 100 774 56 779 79 775 b 186 774 129 772 157 774 b 358 772 243 771 300 768 z "},"°":{"ha":458,"x_min":null,"x_max":null,"o":"m 393 746 b 419 939 424 803 443 878 b 39 911 353 1111 108 1083 b 68 719 14 851 28 771 b 393 746 140 624 332 639 z m 190 822 b 256 915 168 867 206 911 b 256 818 307 918 300 843 b 190 822 233 804 203 799 z "},"±":{"ha":858,"x_min":null,"x_max":null,"o":"m 557 372 b 585 544 578 406 583 472 b 761 550 656 543 735 542 b 778 768 853 581 867 732 b 579 788 739 783 663 788 b 535 969 581 868 589 935 b 317 963 485 1001 367 992 b 271 781 267 932 264 857 b 51 740 174 781 93 786 b 63 563 13 700 25 604 b 286 528 100 522 193 521 b 292 390 283 471 282 410 b 557 372 328 314 513 300 z m 447 -37 b 701 -32 489 -35 664 -47 b 717 207 782 1 794 168 b 283 221 635 247 376 221 b 85 178 196 221 121 229 b 94 -18 51 132 63 26 b 447 -37 150 -94 347 -44 z "},"´":{"ha":303,"x_min":null,"x_max":null,"o":"m 100 735 b 168 783 125 746 143 769 b 258 829 197 800 231 808 b 272 919 285 849 289 890 b 178 982 258 946 208 981 b 67 883 139 982 88 915 b 24 799 49 857 32 829 b 26 754 19 785 19 767 b 100 735 39 726 74 721 z "},"¶":{"ha":919,"x_min":null,"x_max":null,"o":"m 774 -92 b 875 19 828 -79 867 -36 b 843 267 889 101 858 185 b 818 528 828 351 817 440 b 846 732 819 596 829 664 b 860 875 856 779 861 828 b 843 944 858 899 854 924 b 789 994 831 967 810 983 b 572 1021 724 1026 644 1024 b 469 1018 538 1019 504 1019 b 272 979 403 1015 335 1004 b 106 857 210 953 149 911 b 32 721 75 817 43 772 b 29 561 19 669 13 613 b 113 453 43 518 72 475 b 208 435 140 438 175 433 b 190 121 196 331 185 226 b 206 21 192 88 193 53 b 244 -22 214 4 228 -12 b 343 -47 274 -39 308 -46 b 438 -29 375 -49 410 -44 b 493 49 465 -14 489 17 b 475 196 499 97 485 147 b 447 476 456 289 447 383 b 469 617 447 524 446 576 b 515 661 479 636 496 656 b 565 653 529 665 556 663 b 575 499 592 626 579 535 b 560 300 568 432 565 367 b 556 92 556 231 549 161 b 596 -40 560 46 569 -3 b 644 -82 608 -58 625 -74 b 774 -92 683 -101 732 -103 z "},"·":{"ha":369,"x_min":null,"x_max":null,"o":"m 335 581 b 81 635 304 672 153 704 b 131 364 -8 549 11 393 b 335 581 260 331 379 454 z "},"¸":{"ha":597,"x_min":null,"x_max":null,"o":"m 376 235 b 432 610 583 275 660 568 b 357 624 424 611 364 618 b 328 697 336 640 347 681 b 206 708 304 718 236 717 b 211 492 117 683 121 525 b 340 433 254 475 340 500 b 267 403 340 408 314 388 b 153 482 201 422 175 474 b 46 308 63 515 -19 382 b 376 235 104 244 240 208 z "},"»":{"ha":753,"x_min":null,"x_max":null,"o":"m 485 97 b 525 128 500 104 513 117 b 585 181 546 144 565 163 b 729 399 635 224 735 333 b 726 428 728 408 729 418 b 626 590 710 489 669 544 b 456 713 596 624 501 710 b 426 708 446 714 435 713 b 390 676 418 706 396 682 b 364 610 375 658 358 633 b 396 551 368 588 382 569 b 501 440 426 511 465 478 b 536 401 513 428 524 415 b 540 393 538 400 542 396 b 464 310 528 358 494 332 b 385 253 438 290 411 272 b 363 189 363 236 354 214 b 422 103 369 165 400 114 b 485 97 440 93 465 89 z m 156 83 b 196 114 171 90 183 103 b 256 165 217 131 236 149 b 400 385 306 208 406 319 b 397 413 399 394 400 404 b 297 576 381 475 340 529 b 126 699 267 610 172 694 b 97 694 117 700 106 699 b 61 661 89 690 67 668 b 35 596 46 643 31 618 b 67 538 39 574 53 554 b 172 426 97 497 136 463 b 207 388 183 414 194 400 b 211 379 208 385 213 382 b 135 294 199 343 165 318 b 56 239 108 276 82 258 b 33 174 33 222 26 200 b 93 88 40 151 72 99 b 156 83 111 78 136 74 z "},"¿":{"ha":908,"x_min":null,"x_max":null,"o":"m 649 535 b 640 825 764 603 764 776 b 350 668 539 865 369 774 b 649 535 325 524 522 460 z m 857 -199 b 683 81 961 -81 828 133 b 503 -49 649 67 607 -15 b 383 0 425 -72 383 -40 b 592 96 383 108 521 69 b 600 443 735 149 742 403 b 404 425 551 457 442 458 b 357 307 372 397 389 333 b 236 283 344 299 251 286 b 325 -317 -128 218 -7 -253 b 857 -199 546 -360 764 -303 z "},"À":{"ha":986,"x_min":null,"x_max":null,"o":"m 619 1171 b 621 1217 625 1185 625 1201 b 578 1301 613 1247 596 1275 b 467 1399 557 1333 506 1400 b 372 1336 436 1399 388 1363 b 388 1246 356 1308 360 1265 b 478 1201 414 1226 449 1218 b 544 1151 501 1188 519 1164 b 619 1171 572 1139 606 1144 z m 357 71 b 546 67 419 61 483 60 b 910 7 589 -76 794 -87 b 890 631 1032 106 926 478 b 414 1076 821 917 681 1200 b 282 914 350 1047 308 978 b 53 311 201 715 117 517 b 40 7 29 233 -14 67 b 357 71 143 -110 324 -74 z m 513 660 b 540 315 542 549 542 431 b 403 304 494 311 449 304 b 513 660 429 425 458 549 z "},"Á":{"ha":986,"x_min":null,"x_max":null,"o":"m 482 1164 b 550 1213 507 1175 526 1199 b 640 1258 579 1229 613 1238 b 656 1349 667 1278 671 1319 b 561 1411 640 1374 590 1410 b 449 1313 522 1411 471 1344 b 407 1228 432 1286 415 1258 b 408 1183 403 1214 401 1196 b 482 1164 421 1156 456 1150 z m 357 71 b 546 67 419 61 483 60 b 910 7 589 -76 794 -87 b 890 631 1032 106 926 478 b 414 1076 821 917 681 1200 b 282 914 350 1047 308 978 b 53 311 201 715 117 517 b 40 7 29 233 -14 67 b 357 71 143 -110 324 -74 z m 513 660 b 540 315 542 549 542 431 b 403 304 494 311 449 304 b 513 660 429 425 458 549 z "},"Â":{"ha":986,"x_min":null,"x_max":null,"o":"m 453 1147 b 533 1210 479 1160 507 1197 b 546 1208 540 1213 539 1213 b 649 1142 563 1197 628 1146 b 692 1178 671 1136 690 1154 b 614 1331 693 1215 639 1303 b 551 1374 597 1350 576 1371 b 485 1349 528 1378 503 1364 b 390 1235 447 1317 417 1276 b 453 1147 347 1165 390 1117 z m 357 71 b 546 67 419 61 483 60 b 910 7 589 -76 794 -87 b 890 631 1032 106 926 478 b 414 1076 821 917 681 1200 b 282 914 350 1047 308 978 b 53 311 201 715 117 517 b 40 7 29 233 -14 67 b 357 71 143 -110 324 -74 z m 513 660 b 540 315 542 549 542 431 b 403 304 494 311 449 304 b 513 660 429 425 458 549 z "},"Ã":{"ha":986,"x_min":null,"x_max":null,"o":"m 597 1161 b 722 1260 638 1165 704 1224 b 710 1326 736 1285 736 1317 b 625 1294 690 1333 644 1306 b 592 1279 619 1292 599 1279 b 538 1311 579 1281 547 1306 b 479 1333 521 1324 500 1333 b 422 1307 458 1332 438 1321 b 354 1238 397 1286 376 1261 b 340 1204 350 1232 340 1211 b 379 1168 339 1183 358 1167 b 433 1185 397 1168 417 1176 b 489 1207 443 1190 476 1208 b 531 1178 497 1206 524 1183 b 597 1161 550 1165 575 1158 z m 357 71 b 546 67 419 61 483 60 b 910 7 589 -76 794 -87 b 890 631 1032 106 926 478 b 414 1076 821 917 681 1200 b 282 914 350 1047 308 978 b 53 311 201 715 117 517 b 40 7 29 233 -14 67 b 357 71 143 -110 324 -74 z m 513 660 b 540 315 542 549 542 431 b 403 304 494 311 449 304 b 513 660 429 425 458 549 z "},"Ä":{"ha":986,"x_min":null,"x_max":null,"o":"m 693 1263 b 561 1288 678 1319 597 1335 b 593 1163 532 1251 539 1175 b 693 1263 654 1147 710 1201 z m 503 1258 b 369 1283 486 1315 406 1331 b 401 1158 342 1246 347 1171 b 503 1258 463 1143 519 1197 z m 357 71 b 546 67 419 61 483 60 b 910 7 589 -76 794 -87 b 890 631 1032 106 926 478 b 414 1076 821 917 681 1200 b 282 914 350 1047 308 978 b 53 311 201 715 117 517 b 40 7 29 233 -14 67 b 357 71 143 -110 324 -74 z m 513 660 b 540 315 542 549 542 431 b 403 304 494 311 449 304 b 513 660 429 425 458 549 z "},"Å":{"ha":986,"x_min":null,"x_max":null,"o":"m 585 1151 b 653 1368 676 1179 721 1307 b 433 1360 585 1432 486 1438 b 585 1151 347 1233 451 1111 z m 533 1321 b 557 1240 600 1342 614 1256 b 533 1321 511 1226 488 1307 z m 357 71 b 546 67 419 61 483 60 b 910 7 589 -76 794 -87 b 890 631 1032 106 926 478 b 414 1076 821 917 681 1200 b 282 914 350 1047 308 978 b 53 311 201 715 117 517 b 40 7 29 233 -14 67 b 357 71 143 -110 324 -74 z m 513 660 b 540 315 542 549 542 431 b 403 304 494 311 449 304 b 513 660 429 425 458 549 z "},"Æ":{"ha":1418,"x_min":null,"x_max":null,"o":"m 358 81 b 549 76 421 72 485 71 b 768 -42 574 -7 681 -37 b 1358 140 953 -53 1308 -19 b 1328 332 1381 211 1374 272 b 981 325 1274 400 1068 329 b 974 433 938 324 926 426 b 1210 450 1011 439 1176 433 b 1214 635 1265 478 1269 610 b 997 638 1179 650 1035 639 b 993 721 968 638 971 704 b 1314 713 1035 754 1263 694 b 1342 992 1414 747 1435 939 b 894 1013 1263 1038 985 1025 b 772 957 850 1006 799 993 b 358 1044 678 1110 483 1174 b 111 486 285 969 147 586 b 38 22 71 375 -32 118 b 358 81 126 -101 324 -65 z m 515 671 b 543 325 544 558 544 440 b 406 314 497 321 451 315 b 515 671 432 436 461 558 z "},"Ç":{"ha":936,"x_min":null,"x_max":null,"o":"m 554 -342 b 596 -60 710 -312 767 -90 b 539 -49 589 -58 544 -53 b 528 -19 531 -42 529 -31 b 886 203 688 -12 835 65 b 810 465 931 318 928 424 b 424 431 688 507 531 357 b 503 721 311 508 371 729 b 640 661 553 717 599 692 b 829 939 825 529 1007 797 b 22 563 515 1190 53 964 b 185 86 8 396 53 190 b 392 -8 246 39 318 7 b 429 -147 363 -50 375 -128 b 526 -193 463 -160 526 -142 b 471 -215 526 -211 507 -226 b 385 -156 421 -200 401 -161 b 304 -286 317 -129 254 -231 b 554 -342 347 -335 450 -361 z "},"È":{"ha":822,"x_min":null,"x_max":null,"o":"m 569 1125 b 572 1169 576 1138 576 1156 b 529 1254 564 1200 546 1228 b 418 1353 508 1286 457 1353 b 324 1290 388 1351 338 1317 b 338 1200 307 1261 311 1219 b 428 1154 365 1179 399 1171 b 496 1106 453 1140 471 1117 b 569 1125 522 1092 557 1097 z m 583 -17 b 760 89 649 3 728 28 b 729 357 794 157 778 297 b 382 350 672 425 469 353 b 379 458 344 349 342 457 b 617 476 424 460 579 453 b 610 661 668 510 669 644 b 400 663 571 672 442 663 b 414 753 400 663 356 742 b 715 736 468 763 661 719 b 746 1015 815 769 838 963 b 525 1046 682 1053 600 1046 b 194 1004 454 1047 249 1050 b 110 811 142 958 132 878 b 92 40 51 625 -28 193 b 583 -17 182 -76 443 -60 z "},"É":{"ha":822,"x_min":null,"x_max":null,"o":"m 417 1107 b 485 1157 443 1119 461 1143 b 575 1201 514 1174 549 1182 b 590 1292 603 1221 607 1263 b 496 1354 575 1318 525 1354 b 383 1256 457 1356 406 1289 b 342 1172 367 1229 350 1203 b 343 1126 338 1157 336 1140 b 417 1107 357 1100 390 1094 z m 583 -17 b 760 89 649 3 728 28 b 729 357 794 157 778 297 b 382 350 672 425 469 353 b 379 458 344 349 342 457 b 617 476 424 460 579 453 b 610 661 668 510 669 644 b 400 663 571 672 442 663 b 414 753 400 663 356 742 b 715 736 468 763 661 719 b 746 1015 815 769 838 963 b 525 1046 682 1053 600 1046 b 194 1004 454 1047 249 1050 b 110 811 142 958 132 878 b 92 40 51 625 -28 193 b 583 -17 182 -76 443 -60 z "},"Ê":{"ha":822,"x_min":null,"x_max":null,"o":"m 392 1113 b 472 1176 418 1125 446 1163 b 483 1175 479 1179 478 1179 b 588 1107 501 1164 567 1111 b 629 1143 610 1103 629 1121 b 551 1297 632 1182 578 1269 b 490 1340 535 1315 515 1338 b 424 1315 467 1343 442 1331 b 329 1200 385 1283 356 1242 b 392 1113 285 1131 328 1083 z m 583 -17 b 760 89 649 3 728 28 b 729 357 794 157 778 297 b 382 350 672 425 469 353 b 379 458 344 349 342 457 b 617 476 424 460 579 453 b 610 661 668 510 669 644 b 400 663 571 672 442 663 b 414 753 400 663 356 742 b 715 736 468 763 661 719 b 746 1015 815 769 838 963 b 525 1046 682 1053 600 1046 b 194 1004 454 1047 249 1050 b 110 811 142 958 132 878 b 92 40 51 625 -28 193 b 583 -17 182 -76 443 -60 z "},"Ë":{"ha":822,"x_min":null,"x_max":null,"o":"m 643 1235 b 510 1260 626 1292 547 1307 b 542 1135 482 1224 488 1147 b 643 1235 603 1119 660 1174 z m 451 1231 b 319 1256 436 1288 356 1303 b 351 1129 290 1218 297 1143 b 451 1231 413 1115 468 1169 z m 583 -17 b 760 89 649 3 728 28 b 729 357 794 157 778 297 b 382 350 672 425 469 353 b 379 458 344 349 342 457 b 617 476 424 460 579 453 b 610 661 668 510 669 644 b 400 663 571 672 442 663 b 414 753 400 663 356 742 b 715 736 468 763 661 719 b 746 1015 815 769 838 963 b 525 1046 682 1053 600 1046 b 194 1004 454 1047 249 1050 b 110 811 142 958 132 878 b 92 40 51 625 -28 193 b 583 -17 182 -76 443 -60 z "},"Ì":{"ha":556,"x_min":null,"x_max":null,"o":"m 400 1176 b 401 1221 407 1189 406 1207 b 358 1306 393 1251 376 1279 b 247 1404 338 1338 286 1404 b 153 1342 218 1403 168 1368 b 168 1251 136 1313 140 1271 b 258 1206 194 1231 229 1222 b 325 1157 282 1192 300 1168 b 400 1176 353 1143 386 1149 z m 538 192 b 394 521 514 308 418 403 b 436 914 369 650 421 783 b 146 1057 456 1071 269 1156 b 42 656 71 997 49 751 b 163 4 31 489 32 108 b 538 192 319 -122 579 -6 z "},"Í":{"ha":556,"x_min":null,"x_max":null,"o":"m 235 1160 b 303 1208 261 1171 279 1194 b 393 1254 332 1225 367 1233 b 408 1344 421 1274 425 1315 b 314 1407 393 1371 343 1406 b 201 1308 275 1407 224 1340 b 160 1224 185 1282 168 1254 b 161 1179 156 1210 154 1192 b 235 1160 175 1153 208 1146 z m 538 192 b 394 521 514 308 418 403 b 436 914 369 650 421 783 b 146 1057 456 1071 269 1156 b 42 656 71 997 49 751 b 163 4 31 489 32 108 b 538 192 319 -122 579 -6 z "},"Î":{"ha":556,"x_min":null,"x_max":null,"o":"m 207 1138 b 288 1200 233 1149 261 1188 b 300 1199 294 1203 293 1203 b 403 1132 317 1188 383 1135 b 446 1167 425 1126 444 1144 b 368 1321 447 1206 393 1293 b 307 1364 351 1340 331 1361 b 239 1339 283 1367 257 1354 b 146 1225 201 1307 172 1267 b 207 1138 101 1156 144 1107 z m 538 192 b 394 521 514 308 418 403 b 436 914 369 650 421 783 b 146 1057 456 1071 269 1156 b 42 656 71 997 49 751 b 163 4 31 489 32 108 b 538 192 319 -122 579 -6 z "},"Ï":{"ha":556,"x_min":null,"x_max":null,"o":"m 440 1258 b 307 1283 424 1315 343 1331 b 339 1158 279 1247 285 1171 b 440 1258 400 1143 457 1197 z m 249 1254 b 117 1279 233 1311 153 1326 b 149 1154 88 1243 94 1167 b 249 1254 210 1139 265 1193 z m 538 192 b 394 521 514 308 418 403 b 436 914 369 650 421 783 b 146 1057 456 1071 269 1156 b 42 656 71 997 49 751 b 163 4 31 489 32 108 b 538 192 319 -122 579 -6 z "},"Ð":{"ha":1158,"x_min":null,"x_max":null,"o":"m 703 -49 b 681 1056 1297 99 1282 940 b 167 825 474 1094 217 1031 b 151 569 151 761 146 669 b 69 572 122 575 88 576 b 29 533 53 567 38 550 b 57 363 6 478 6 394 b 111 349 72 353 92 349 b 176 356 132 349 154 350 b 314 -19 203 201 250 56 b 703 -49 385 -103 597 -75 z m 492 403 b 538 403 511 403 531 403 b 621 421 565 404 594 410 b 661 464 639 428 656 444 b 575 606 681 529 644 604 b 465 597 539 607 501 601 b 557 733 471 674 497 733 b 608 292 776 735 814 392 b 492 403 561 268 518 324 z "},"Ñ":{"ha":1240,"x_min":null,"x_max":null,"o":"m 689 1094 b 814 1194 729 1100 794 1158 b 800 1261 826 1219 826 1251 b 717 1229 781 1267 735 1240 b 682 1214 710 1226 689 1214 b 629 1246 671 1215 638 1239 b 569 1267 611 1258 590 1268 b 513 1242 549 1267 529 1254 b 446 1172 488 1221 467 1196 b 431 1139 440 1167 432 1146 b 469 1103 431 1118 449 1101 b 525 1119 489 1103 507 1111 b 579 1140 535 1125 568 1142 b 621 1113 589 1140 614 1118 b 689 1094 640 1100 665 1093 z m 953 -1 b 1207 626 1208 58 1207 447 b 1119 1003 1207 767 1183 878 b 776 972 1072 1093 842 1094 b 811 393 713 853 796 528 b 276 978 685 653 529 1121 b 144 829 210 940 176 897 b 250 -3 -12 489 -58 -19 b 471 458 453 8 482 256 b 953 -1 567 250 728 -54 z "},"Ò":{"ha":1097,"x_min":null,"x_max":null,"o":"m 679 1171 b 681 1217 686 1185 685 1201 b 639 1301 672 1247 656 1275 b 526 1399 617 1333 565 1400 b 432 1336 497 1399 447 1363 b 447 1246 417 1308 421 1265 b 538 1201 475 1226 508 1218 b 606 1151 561 1188 581 1164 b 679 1171 632 1139 667 1144 z m 875 96 b 932 949 1103 333 1167 719 b 129 835 715 1160 306 1101 b 161 96 -1 636 -43 301 b 875 96 354 -99 696 -92 z m 472 342 b 456 675 335 368 365 568 b 682 635 529 764 661 749 b 472 342 710 476 629 313 z "},"Ó":{"ha":1097,"x_min":null,"x_max":null,"o":"m 546 1140 b 613 1190 571 1153 589 1176 b 703 1235 642 1207 676 1215 b 718 1325 731 1254 735 1296 b 624 1388 703 1351 654 1388 b 513 1289 585 1389 533 1322 b 469 1206 494 1263 478 1236 b 471 1160 465 1190 465 1174 b 546 1140 485 1133 518 1128 z m 875 96 b 932 949 1103 333 1167 719 b 129 835 715 1160 306 1101 b 161 96 -1 636 -43 301 b 875 96 354 -99 696 -92 z m 472 342 b 456 675 335 368 365 568 b 682 635 529 764 661 749 b 472 342 710 476 629 313 z "},"Ô":{"ha":1097,"x_min":null,"x_max":null,"o":"m 514 1147 b 594 1210 540 1160 568 1197 b 606 1208 600 1213 599 1213 b 708 1142 624 1197 689 1146 b 751 1178 732 1136 750 1154 b 674 1331 753 1215 699 1303 b 613 1374 657 1350 638 1371 b 546 1349 589 1378 564 1364 b 451 1235 507 1317 478 1276 b 514 1147 407 1165 450 1117 z m 875 96 b 932 949 1103 333 1167 719 b 129 835 715 1160 306 1101 b 161 96 -1 636 -43 301 b 875 96 354 -99 696 -92 z m 472 342 b 456 675 335 368 365 568 b 682 635 529 764 661 749 b 472 342 710 476 629 313 z "},"Õ":{"ha":1097,"x_min":null,"x_max":null,"o":"m 650 1149 b 775 1249 690 1153 756 1213 b 761 1314 788 1272 788 1306 b 678 1283 742 1321 696 1293 b 643 1268 671 1279 650 1268 b 590 1300 632 1269 599 1293 b 531 1321 572 1311 551 1322 b 474 1294 510 1321 490 1308 b 407 1226 449 1274 428 1250 b 393 1193 401 1219 393 1200 b 431 1156 392 1172 410 1156 b 486 1174 450 1157 468 1164 b 540 1194 496 1178 529 1196 b 583 1167 550 1194 575 1172 b 650 1149 601 1154 626 1146 z m 875 96 b 932 949 1103 333 1167 719 b 129 835 715 1160 306 1101 b 161 96 -1 636 -43 301 b 875 96 354 -99 696 -92 z m 472 342 b 456 675 335 368 365 568 b 682 635 529 764 661 749 b 472 342 710 476 629 313 z "},"Ö":{"ha":1097,"x_min":null,"x_max":null,"o":"m 735 1229 b 601 1254 718 1286 639 1301 b 633 1128 574 1217 579 1142 b 735 1229 694 1114 751 1168 z m 543 1225 b 411 1250 528 1282 447 1297 b 443 1124 382 1213 389 1138 b 543 1225 504 1110 560 1164 z m 875 96 b 932 949 1103 333 1167 719 b 129 835 715 1160 306 1101 b 161 96 -1 636 -43 301 b 875 96 354 -99 696 -92 z m 472 342 b 456 675 335 368 365 568 b 682 635 529 764 661 749 b 472 342 710 476 629 313 z "},"×":{"ha":757,"x_min":null,"x_max":null,"o":"m 222 251 b 389 381 267 267 328 319 b 519 263 439 329 494 272 b 719 439 613 224 751 346 b 594 596 704 481 654 538 b 718 785 664 664 728 715 b 557 932 710 847 619 922 b 369 806 496 940 429 878 b 179 926 300 875 247 936 b 35 763 117 918 43 825 b 164 576 25 701 90 636 b 49 453 113 529 60 476 b 222 251 10 361 129 219 z "},"Ø":{"ha":1104,"x_min":null,"x_max":null,"o":"m 204 -67 b 279 11 239 -54 260 -19 b 878 96 474 -90 731 -58 b 983 894 1088 315 1160 663 b 1025 940 999 908 1013 924 b 1050 1004 1039 958 1050 981 b 975 1100 1050 1040 1008 1088 b 926 1101 960 1106 942 1107 b 871 1058 904 1094 886 1076 b 839 1018 860 1044 849 1032 b 132 835 613 1140 285 1067 b 136 126 7 646 -36 333 b 114 94 129 117 121 106 b 79 25 100 74 85 50 b 86 -18 76 11 79 -6 b 204 -67 110 -56 164 -82 z m 458 675 b 621 721 504 729 571 744 b 385 432 542 625 464 528 b 458 675 369 506 403 608 z m 499 339 b 592 465 529 382 560 425 b 689 582 622 506 656 544 b 499 339 693 451 624 331 z "},"Ù":{"ha":1063,"x_min":null,"x_max":null,"o":"m 613 1146 b 615 1192 619 1160 618 1176 b 572 1275 606 1222 589 1249 b 461 1374 551 1308 500 1375 b 367 1311 431 1374 381 1338 b 381 1221 350 1282 354 1240 b 471 1176 408 1201 442 1193 b 539 1126 496 1163 514 1139 b 613 1146 565 1114 600 1119 z m 964 185 b 979 965 1040 314 1056 824 b 644 954 921 1069 707 1047 b 654 432 594 881 672 519 b 446 392 635 331 515 315 b 496 944 375 468 521 843 b 174 1015 467 1060 263 1100 b 26 431 74 918 21 569 b 99 151 31 335 46 232 b 964 185 288 -137 792 -111 z "},"Ú":{"ha":1063,"x_min":null,"x_max":null,"o":"m 585 1099 b 653 1147 611 1110 629 1133 b 743 1193 682 1164 717 1172 b 758 1283 769 1213 774 1254 b 664 1346 743 1310 693 1344 b 551 1247 625 1346 574 1279 b 510 1163 535 1221 518 1193 b 511 1118 506 1149 504 1131 b 585 1099 525 1090 558 1085 z m 964 185 b 979 965 1040 314 1056 824 b 644 954 921 1069 707 1047 b 654 432 594 881 672 519 b 446 392 635 331 515 315 b 496 944 375 468 521 843 b 174 1015 467 1060 263 1100 b 26 431 74 918 21 569 b 99 151 31 335 46 232 b 964 185 288 -137 792 -111 z "},"Û":{"ha":1063,"x_min":null,"x_max":null,"o":"m 489 1119 b 569 1182 515 1132 543 1169 b 582 1181 576 1185 575 1186 b 685 1114 599 1169 664 1118 b 728 1150 707 1110 726 1126 b 649 1304 729 1188 675 1275 b 588 1346 632 1322 613 1343 b 521 1322 564 1350 539 1338 b 426 1207 483 1290 453 1249 b 489 1119 383 1138 425 1090 z m 964 185 b 979 965 1040 314 1056 824 b 644 954 921 1069 707 1047 b 654 432 594 881 672 519 b 446 392 635 331 515 315 b 496 944 375 468 521 843 b 174 1015 467 1060 263 1100 b 26 431 74 918 21 569 b 99 151 31 335 46 232 b 964 185 288 -137 792 -111 z "},"Ü":{"ha":1063,"x_min":null,"x_max":null,"o":"m 747 1194 b 615 1219 732 1251 651 1267 b 647 1093 586 1182 593 1107 b 747 1194 708 1079 764 1133 z m 557 1189 b 425 1215 540 1246 461 1263 b 456 1089 396 1178 401 1101 b 557 1189 517 1075 574 1129 z m 964 185 b 979 965 1040 314 1056 824 b 644 954 921 1069 707 1047 b 654 432 594 881 672 519 b 446 392 635 331 515 315 b 496 944 375 468 521 843 b 174 1015 467 1060 263 1100 b 26 431 74 918 21 569 b 99 151 31 335 46 232 b 964 185 288 -137 792 -111 z "},"Ý":{"ha":944,"x_min":null,"x_max":null,"o":"m 456 1139 b 524 1188 481 1151 499 1174 b 614 1233 553 1206 586 1214 b 628 1324 640 1253 644 1294 b 533 1386 614 1350 564 1385 b 422 1288 494 1386 443 1321 b 379 1203 406 1261 388 1233 b 382 1158 375 1189 375 1172 b 456 1139 394 1132 429 1126 z m 489 -29 b 592 4 525 -25 558 -11 b 653 53 615 15 639 32 b 671 117 665 72 669 94 b 644 461 683 232 644 346 b 681 600 644 508 654 558 b 835 793 725 668 778 732 b 919 904 867 828 903 863 b 929 967 926 924 932 946 b 746 1122 919 1032 817 1106 b 661 1117 718 1128 688 1125 b 554 1033 617 1101 581 1069 b 488 900 525 993 507 946 b 440 781 471 861 454 821 b 433 763 438 775 435 768 b 371 935 413 819 393 878 b 324 1026 360 967 344 999 b 257 1075 308 1047 285 1068 b 138 1063 218 1083 175 1075 b 42 1008 101 1051 64 1036 b 15 942 25 990 17 965 b 29 843 11 908 19 875 b 197 565 58 742 125 649 b 289 478 225 533 253 501 b 279 429 285 458 282 440 b 247 263 268 374 257 318 b 235 110 239 213 232 161 b 263 36 236 85 244 57 b 335 -11 281 15 307 0 b 489 -29 382 -29 438 -37 z "},"Þ":{"ha":1017,"x_min":null,"x_max":null,"o":"m 438 -94 b 514 196 521 -49 532 104 b 858 831 864 104 1206 597 b 438 872 742 910 571 918 b 315 1156 439 976 418 1133 b 31 1031 210 1178 65 1135 b 54 757 1 944 38 847 b 100 326 81 615 99 471 b 157 -93 101 221 71 -31 b 438 -94 221 -139 368 -133 z m 385 629 b 688 460 432 833 844 585 b 385 629 621 407 365 547 z "},"ß":{"ha":1099,"x_min":null,"x_max":null,"o":"m 392 -50 b 403 551 468 50 406 425 b 518 851 401 667 407 883 b 519 556 607 851 615 719 b 565 449 497 518 525 465 b 689 338 601 433 785 390 b 490 239 618 315 526 303 b 996 8 338 -35 751 -189 b 875 589 1185 161 1061 433 b 969 811 915 658 972 731 b 86 943 958 1199 239 1318 b 50 36 26 794 42 197 b 392 -50 60 -119 294 -179 z "},"à":{"ha":963,"x_min":null,"x_max":null,"o":"m 626 1046 b 628 1092 633 1060 632 1078 b 586 1176 619 1122 603 1150 b 474 1274 564 1208 513 1275 b 379 1213 444 1274 394 1238 b 394 1121 364 1183 368 1142 b 485 1076 421 1101 456 1093 b 553 1026 508 1063 528 1039 b 626 1046 579 1014 614 1019 z m 881 53 b 917 319 939 124 925 231 b 906 739 901 458 972 614 b 114 713 749 1031 304 985 b 556 86 -128 365 97 -189 b 881 53 640 -21 794 -53 z m 449 339 b 604 599 285 422 397 728 b 449 339 693 544 582 269 z "},"á":{"ha":963,"x_min":null,"x_max":null,"o":"m 497 1019 b 565 1069 522 1032 540 1056 b 656 1114 594 1086 628 1094 b 669 1206 682 1135 686 1176 b 575 1267 656 1231 606 1267 b 464 1169 536 1268 485 1201 b 421 1085 447 1143 431 1115 b 424 1039 418 1071 417 1053 b 497 1019 436 1013 471 1007 z m 881 53 b 917 319 939 124 925 231 b 906 739 901 458 972 614 b 114 713 749 1031 304 985 b 556 86 -128 365 97 -189 b 881 53 640 -21 794 -53 z m 449 339 b 604 599 285 422 397 728 b 449 339 693 544 582 269 z "},"â":{"ha":963,"x_min":null,"x_max":null,"o":"m 440 1010 b 521 1074 467 1022 494 1061 b 533 1072 528 1076 526 1076 b 636 1004 550 1061 615 1008 b 679 1040 658 1000 678 1018 b 601 1194 681 1079 626 1167 b 539 1238 585 1214 564 1235 b 472 1213 515 1240 490 1228 b 378 1097 435 1181 404 1140 b 440 1010 335 1029 378 981 z m 881 53 b 917 319 939 124 925 231 b 906 739 901 458 972 614 b 114 713 749 1031 304 985 b 556 86 -128 365 97 -189 b 881 53 640 -21 794 -53 z m 449 339 b 604 599 285 422 397 728 b 449 339 693 544 582 269 z "},"ã":{"ha":963,"x_min":null,"x_max":null,"o":"m 607 1021 b 732 1119 647 1025 714 1085 b 719 1186 744 1144 744 1178 b 635 1156 699 1193 653 1165 b 600 1140 629 1151 608 1139 b 547 1172 589 1140 557 1165 b 489 1193 531 1183 510 1193 b 431 1167 467 1192 447 1181 b 364 1097 407 1146 386 1121 b 350 1064 358 1092 350 1072 b 388 1028 349 1043 368 1028 b 443 1044 407 1028 426 1036 b 497 1067 453 1050 486 1068 b 540 1039 507 1065 532 1043 b 607 1021 560 1025 585 1018 z m 881 53 b 917 319 939 124 925 231 b 906 739 901 458 972 614 b 114 713 749 1031 304 985 b 556 86 -128 365 97 -189 b 881 53 640 -21 794 -53 z m 449 339 b 604 599 285 422 397 728 b 449 339 693 544 582 269 z "},"ä":{"ha":963,"x_min":null,"x_max":null,"o":"m 717 1129 b 585 1154 701 1186 621 1201 b 615 1029 556 1118 561 1042 b 717 1129 676 1014 733 1068 z m 525 1125 b 393 1150 510 1182 429 1197 b 425 1024 365 1113 371 1038 b 525 1125 486 1010 542 1064 z m 881 53 b 917 319 939 124 925 231 b 906 739 901 458 972 614 b 114 713 749 1031 304 985 b 556 86 -128 365 97 -189 b 881 53 640 -21 794 -53 z m 449 339 b 604 599 285 422 397 728 b 449 339 693 544 582 269 z "},"å":{"ha":963,"x_min":null,"x_max":null,"o":"m 568 997 b 636 1215 660 1025 704 1153 b 417 1206 568 1278 469 1283 b 568 997 331 1079 435 957 z m 517 1167 b 540 1086 583 1188 597 1103 b 517 1167 494 1072 471 1153 z m 881 53 b 917 319 939 124 925 231 b 906 739 901 458 972 614 b 114 713 749 1031 304 985 b 556 86 -128 365 97 -189 b 881 53 640 -21 794 -53 z m 449 339 b 604 599 285 422 397 728 b 449 339 693 544 582 269 z "},"æ":{"ha":1525,"x_min":null,"x_max":null,"o":"m 1313 17 b 1461 385 1467 71 1572 264 b 1240 379 1411 439 1304 415 b 1013 446 1138 321 1006 340 b 1476 699 1235 400 1476 471 b 835 882 1478 1001 1082 1056 b 803 857 824 874 813 865 b 114 710 604 1006 271 936 b 556 83 -128 364 97 -192 b 875 43 639 -21 788 -53 b 1313 17 1006 -22 1167 -33 z m 1003 610 b 1201 754 961 717 1119 828 b 1003 610 1294 669 1056 522 z m 449 336 b 604 597 285 419 397 725 b 635 507 629 581 639 546 b 633 494 635 507 633 494 b 449 336 619 401 539 289 z "},"ç":{"ha":968,"x_min":null,"x_max":null,"o":"m 531 -349 b 572 -67 686 -319 743 -97 b 515 -56 565 -65 521 -60 b 506 -36 510 -51 507 -44 b 867 97 654 -46 799 -7 b 619 513 1038 361 843 583 b 397 457 550 490 433 392 b 556 683 354 536 438 683 b 735 583 643 683 636 583 b 931 808 894 583 988 681 b 64 649 775 1157 221 976 b 328 -4 -58 390 56 82 b 368 -15 342 -8 354 -12 b 406 -156 339 -57 351 -135 b 503 -200 438 -168 503 -150 b 447 -224 503 -219 483 -235 b 361 -162 397 -207 378 -168 b 281 -293 293 -137 231 -237 b 531 -349 324 -343 426 -369 z "},"è":{"ha":910,"x_min":null,"x_max":null,"o":"m 583 1051 b 586 1096 590 1064 590 1082 b 543 1181 578 1126 561 1154 b 432 1279 522 1213 471 1279 b 338 1217 401 1278 351 1243 b 351 1126 321 1188 325 1146 b 442 1081 379 1106 413 1097 b 510 1032 467 1067 485 1043 b 583 1051 536 1018 571 1025 z m 697 -7 b 846 361 853 47 957 240 b 625 356 796 415 690 392 b 397 422 522 297 392 317 b 863 676 621 376 861 449 b 219 858 863 978 467 1032 b 40 261 56 743 -31 449 b 697 -7 135 7 443 -96 z m 388 586 b 588 731 347 693 506 804 b 388 586 681 646 442 499 z "},"é":{"ha":910,"x_min":null,"x_max":null,"o":"m 471 1033 b 539 1083 496 1046 514 1069 b 629 1129 568 1100 601 1108 b 643 1219 656 1149 660 1190 b 549 1281 629 1244 579 1281 b 438 1183 510 1282 458 1215 b 394 1099 419 1157 403 1129 b 397 1053 390 1085 390 1067 b 471 1033 410 1026 444 1021 z m 697 -7 b 846 361 853 47 957 240 b 625 356 796 415 690 392 b 397 422 522 297 392 317 b 863 676 621 376 861 449 b 219 858 863 978 467 1032 b 40 261 56 743 -31 449 b 697 -7 135 7 443 -96 z m 388 586 b 588 731 347 693 506 804 b 388 586 681 646 442 499 z "},"ê":{"ha":910,"x_min":null,"x_max":null,"o":"m 401 1044 b 482 1108 428 1057 456 1094 b 493 1107 489 1111 488 1111 b 597 1039 511 1096 576 1043 b 639 1075 619 1035 639 1053 b 561 1229 642 1114 588 1201 b 500 1272 544 1247 525 1269 b 433 1247 476 1275 451 1263 b 339 1132 394 1215 365 1174 b 401 1044 294 1063 338 1015 z m 697 -7 b 846 361 853 47 957 240 b 625 356 796 415 690 392 b 397 422 522 297 392 317 b 863 676 621 376 861 449 b 219 858 863 978 467 1032 b 40 261 56 743 -31 449 b 697 -7 135 7 443 -96 z m 388 586 b 588 731 347 693 506 804 b 388 586 681 646 442 499 z "},"ë":{"ha":910,"x_min":null,"x_max":null,"o":"m 661 1169 b 529 1196 646 1226 565 1242 b 561 1069 500 1158 507 1082 b 661 1169 622 1054 678 1110 z m 471 1165 b 338 1190 454 1222 374 1238 b 369 1065 310 1154 315 1078 b 471 1165 431 1050 488 1104 z m 697 -7 b 846 361 853 47 957 240 b 625 356 796 415 690 392 b 397 422 522 297 392 317 b 863 676 621 376 861 449 b 219 858 863 978 467 1032 b 40 261 56 743 -31 449 b 697 -7 135 7 443 -96 z m 388 586 b 588 731 347 693 506 804 b 388 586 681 646 442 499 z "},"ì":{"ha":497,"x_min":null,"x_max":null,"o":"m 411 914 b 413 960 417 928 417 944 b 369 1043 404 989 388 1017 b 258 1142 349 1076 297 1143 b 164 1079 228 1140 179 1106 b 178 989 147 1050 151 1008 b 268 944 206 969 240 961 b 336 894 293 931 311 907 b 411 914 364 882 397 888 z m 468 158 b 424 458 496 254 435 358 b 439 690 417 536 438 613 b 249 804 443 796 333 842 b 69 528 157 764 114 632 b 39 118 26 431 -11 211 b 468 158 132 -51 414 -25 z "},"í":{"ha":500,"x_min":null,"x_max":null,"o":"m 263 892 b 331 942 289 904 307 928 b 421 986 360 958 394 967 b 436 1076 447 1006 451 1049 b 342 1139 421 1103 371 1139 b 229 1040 303 1140 251 1074 b 188 957 213 1015 196 988 b 189 911 183 942 182 925 b 263 892 203 885 236 879 z m 468 158 b 424 458 496 254 435 358 b 439 690 417 536 438 613 b 249 804 443 796 333 842 b 69 528 157 764 114 632 b 39 118 26 431 -11 211 b 468 158 132 -51 414 -25 z "},"î":{"ha":508,"x_min":null,"x_max":null,"o":"m 247 886 b 328 950 274 899 301 936 b 340 949 335 953 333 953 b 443 881 357 938 422 885 b 485 917 465 876 485 894 b 407 1071 488 956 433 1043 b 346 1114 390 1090 371 1111 b 279 1089 322 1117 297 1104 b 185 974 242 1057 211 1017 b 247 886 142 904 183 857 z m 468 158 b 424 458 496 254 435 358 b 439 690 417 536 438 613 b 249 804 443 796 333 842 b 69 528 157 764 114 632 b 39 118 26 431 -11 211 b 468 158 132 -51 414 -25 z "},"ï":{"ha":517,"x_min":null,"x_max":null,"o":"m 496 1000 b 364 1026 481 1057 400 1072 b 396 900 335 989 342 913 b 496 1000 457 885 513 940 z m 306 996 b 174 1021 290 1053 210 1068 b 204 896 144 985 150 908 b 306 996 265 881 322 936 z m 468 158 b 424 458 496 254 435 358 b 439 690 417 536 438 613 b 249 804 443 796 333 842 b 69 528 157 764 114 632 b 39 118 26 431 -11 211 b 468 158 132 -51 414 -25 z "},"ð":{"ha":922,"x_min":null,"x_max":null,"o":"m 818 242 b 815 815 857 364 858 638 b 847 840 826 824 836 832 b 907 915 874 858 900 883 b 888 985 913 939 900 965 b 824 1040 872 1010 851 1035 b 753 1018 799 1046 772 1033 b 722 990 747 1013 735 1001 b 419 1006 635 1135 515 1050 b 338 881 374 985 328 929 b 397 792 340 861 371 824 b 372 768 388 783 379 774 b 340 729 360 756 347 744 b 336 688 335 717 333 701 b 83 617 244 719 146 704 b 324 -29 -82 389 68 86 b 818 242 597 -151 761 63 z m 443 629 b 460 644 449 633 454 639 b 483 672 467 654 475 663 b 514 557 501 636 513 597 b 443 629 493 585 469 608 z m 419 194 b 329 440 293 211 233 404 b 419 194 464 492 546 178 z "},"ñ":{"ha":1221,"x_min":null,"x_max":null,"o":"m 600 996 b 725 1094 640 1000 707 1058 b 713 1161 739 1119 739 1151 b 628 1129 693 1168 647 1140 b 593 1114 622 1126 601 1114 b 540 1146 582 1115 550 1140 b 482 1168 524 1158 503 1168 b 425 1142 461 1167 440 1156 b 357 1072 400 1121 379 1096 b 343 1039 353 1067 343 1047 b 382 1003 342 1018 361 1001 b 436 1019 400 1003 419 1011 b 492 1042 446 1025 479 1043 b 533 1013 500 1040 526 1018 b 600 996 553 1000 578 993 z m 478 176 b 465 446 481 267 465 357 b 639 590 465 597 567 661 b 731 133 699 533 700 210 b 1135 364 857 -187 1401 64 b 1085 685 1063 444 1097 576 b 454 772 1051 1001 653 969 b 75 772 401 1000 136 997 b 44 192 25 585 14 386 b 478 176 88 -90 467 -108 z "},"ò":{"ha":976,"x_min":null,"x_max":null,"o":"m 615 1071 b 617 1117 622 1085 621 1101 b 575 1201 608 1147 592 1175 b 463 1299 553 1233 501 1300 b 368 1236 433 1299 383 1263 b 383 1146 353 1208 357 1165 b 474 1101 410 1126 444 1118 b 542 1051 497 1088 517 1064 b 615 1071 568 1039 603 1044 z m 960 592 b 681 947 958 767 861 890 b 203 43 210 1097 -257 314 b 960 592 590 -185 964 168 z m 475 632 b 489 381 658 767 714 417 b 475 632 343 357 356 544 z "},"ó":{"ha":976,"x_min":null,"x_max":null,"o":"m 518 1043 b 586 1093 543 1056 561 1079 b 676 1138 615 1110 649 1118 b 690 1228 703 1157 707 1200 b 596 1290 676 1254 626 1290 b 485 1193 557 1292 506 1225 b 442 1108 467 1167 450 1139 b 444 1063 438 1093 438 1076 b 518 1043 457 1036 492 1031 z m 960 592 b 681 947 958 767 861 890 b 203 43 210 1097 -257 314 b 960 592 590 -185 964 168 z m 475 632 b 489 381 658 767 714 417 b 475 632 343 357 356 544 z "},"ô":{"ha":976,"x_min":null,"x_max":null,"o":"m 475 1036 b 556 1100 501 1049 529 1088 b 568 1099 563 1103 561 1103 b 671 1032 585 1088 650 1035 b 714 1067 693 1026 713 1044 b 635 1221 715 1106 661 1193 b 574 1264 618 1240 599 1261 b 507 1239 550 1267 525 1254 b 413 1125 469 1207 439 1167 b 475 1036 369 1056 411 1007 z m 960 592 b 681 947 958 767 861 890 b 203 43 210 1097 -257 314 b 960 592 590 -185 964 168 z m 475 632 b 489 381 658 767 714 417 b 475 632 343 357 356 544 z "},"õ":{"ha":976,"x_min":null,"x_max":null,"o":"m 611 1022 b 736 1121 651 1026 717 1085 b 722 1188 749 1146 749 1178 b 639 1156 703 1193 657 1167 b 604 1140 632 1153 611 1140 b 550 1172 593 1142 560 1167 b 492 1194 533 1185 513 1194 b 435 1168 471 1193 450 1182 b 368 1099 410 1147 389 1122 b 353 1065 363 1093 354 1072 b 392 1029 353 1044 371 1028 b 446 1046 411 1029 429 1038 b 501 1068 457 1051 490 1069 b 543 1039 510 1067 536 1044 b 611 1022 563 1026 588 1019 z m 960 592 b 681 947 958 767 861 890 b 203 43 210 1097 -257 314 b 960 592 590 -185 964 168 z m 475 632 b 489 381 658 767 714 417 b 475 632 343 357 356 544 z "},"ö":{"ha":976,"x_min":null,"x_max":null,"o":"m 726 1144 b 594 1169 710 1201 631 1217 b 625 1044 565 1133 571 1057 b 726 1144 686 1029 743 1085 z m 535 1140 b 403 1165 519 1197 439 1213 b 435 1040 374 1129 381 1053 b 535 1140 496 1025 551 1079 z m 960 592 b 681 947 958 767 861 890 b 203 43 210 1097 -257 314 b 960 592 590 -185 964 168 z m 475 632 b 489 381 658 767 714 417 b 475 632 343 357 356 544 z "},"÷":{"ha":831,"x_min":null,"x_max":null,"o":"m 528 890 b 357 926 506 951 406 972 b 390 744 297 868 310 765 b 528 890 476 722 557 806 z m 346 449 b 749 442 382 450 715 426 b 771 669 819 471 835 629 b 214 700 701 710 293 696 b 40 664 138 701 75 713 b 43 476 11 622 17 521 b 346 449 88 403 260 444 z m 500 336 b 331 374 479 399 378 419 b 364 192 271 315 283 213 b 500 336 450 169 529 253 z "},"ø":{"ha":982,"x_min":null,"x_max":null,"o":"m 268 -111 b 315 -31 292 -92 304 -60 b 324 -8 318 -24 321 -17 b 963 592 665 -112 967 211 b 860 847 963 696 926 782 b 894 899 874 863 885 879 b 903 976 906 922 910 951 b 871 1026 897 996 885 1013 b 722 1064 835 1063 769 1081 b 656 989 690 1053 669 1019 b 644 958 653 983 649 971 b 121 110 221 1047 -179 413 b 65 58 97 92 75 71 b 44 -1 53 42 44 19 b 53 -31 44 -11 47 -21 b 99 -82 64 -50 81 -68 b 201 -128 129 -103 164 -124 b 268 -111 224 -131 250 -125 z m 478 632 b 547 663 504 651 528 661 b 525 629 540 651 533 640 b 390 431 481 563 435 497 b 478 632 372 488 404 578 z m 540 476 b 631 603 568 519 599 561 b 492 381 657 526 621 401 b 482 379 489 381 485 381 b 540 476 500 413 519 444 z "},"ù":{"ha":1017,"x_min":null,"x_max":null,"o":"m 665 1026 b 667 1071 671 1040 671 1057 b 624 1156 658 1101 642 1129 b 513 1254 603 1189 551 1254 b 418 1192 482 1253 433 1218 b 433 1101 401 1163 406 1121 b 524 1056 460 1082 494 1074 b 590 1007 547 1042 565 1018 b 665 1026 618 993 651 1000 z m 976 231 b 950 825 989 338 988 725 b 653 850 904 951 715 967 b 633 535 603 757 646 639 b 442 438 622 435 500 357 b 510 681 397 499 481 610 b 144 788 618 950 244 1014 b 108 124 14 603 -46 290 b 590 124 233 -14 453 -1 b 976 231 697 -93 949 -8 z "},"ú":{"ha":1017,"x_min":null,"x_max":null,"o":"m 563 1010 b 631 1058 588 1021 606 1044 b 721 1104 660 1075 693 1083 b 735 1194 747 1124 751 1165 b 640 1257 721 1219 671 1256 b 529 1158 601 1257 550 1190 b 486 1074 513 1132 494 1104 b 489 1029 482 1060 482 1042 b 563 1010 501 1001 536 996 z m 976 231 b 950 825 989 338 988 725 b 653 850 904 951 715 967 b 633 535 603 757 646 639 b 442 438 622 435 500 357 b 510 681 397 499 481 610 b 144 788 618 950 244 1014 b 108 124 14 603 -46 290 b 590 124 233 -14 453 -1 b 976 231 697 -93 949 -8 z "},"û":{"ha":1017,"x_min":null,"x_max":null,"o":"m 489 1019 b 569 1083 515 1032 543 1069 b 582 1082 576 1086 575 1086 b 685 1014 599 1071 665 1018 b 728 1050 707 1010 726 1026 b 650 1204 729 1089 675 1175 b 589 1247 633 1222 613 1243 b 521 1222 565 1250 539 1238 b 428 1107 483 1190 454 1149 b 489 1019 383 1038 426 990 z m 976 231 b 950 825 989 338 988 725 b 653 850 904 951 715 967 b 633 535 603 757 646 639 b 442 438 622 435 500 357 b 510 681 397 499 481 610 b 144 788 618 950 244 1014 b 108 124 14 603 -46 290 b 590 124 233 -14 453 -1 b 976 231 697 -93 949 -8 z "},"ü":{"ha":1017,"x_min":null,"x_max":null,"o":"m 756 1079 b 624 1104 740 1136 660 1151 b 654 979 594 1068 600 992 b 756 1079 715 964 772 1018 z m 564 1075 b 432 1100 549 1132 468 1147 b 464 975 404 1063 410 988 b 564 1075 525 960 581 1014 z m 976 231 b 950 825 989 338 988 725 b 653 850 904 951 715 967 b 633 535 603 757 646 639 b 442 438 622 435 500 357 b 510 681 397 499 481 610 b 144 788 618 950 244 1014 b 108 124 14 603 -46 290 b 590 124 233 -14 453 -1 b 976 231 697 -93 949 -8 z "},"ý":{"ha":1053,"x_min":null,"x_max":null,"o":"m 556 1031 b 624 1081 581 1043 599 1067 b 714 1125 653 1097 686 1106 b 728 1215 740 1144 744 1188 b 633 1278 714 1242 664 1278 b 522 1181 594 1279 543 1213 b 479 1096 506 1154 489 1126 b 482 1050 475 1081 475 1064 b 556 1031 494 1024 529 1018 z m 890 -65 b 964 858 1071 211 1038 693 b 606 796 893 1019 619 911 b 610 722 604 778 606 753 b 426 726 621 569 435 553 b 414 889 424 781 424 835 b 197 1017 397 985 321 1038 b 18 793 68 996 -6 935 b 49 653 26 746 38 699 b 283 294 81 513 126 339 b 657 396 417 256 558 301 b 647 256 661 343 660 293 b 454 171 615 149 560 126 b 240 250 385 201 317 258 b 181 -146 60 228 47 -25 b 890 -65 393 -340 735 -306 z "},"þ":{"ha":1069,"x_min":null,"x_max":null,"o":"m 433 -210 b 479 131 488 -154 481 53 b 1056 507 758 24 1057 207 b 497 806 1053 803 746 968 b 483 1047 508 860 510 997 b 144 1081 429 1153 224 1171 b 44 276 26 946 35 456 b 185 -218 50 149 76 -149 b 433 -210 253 -262 376 -268 z m 467 446 b 611 619 404 544 500 653 b 656 414 679 600 693 472 b 467 446 614 349 508 381 z "},"ÿ":{"ha":1053,"x_min":null,"x_max":null,"o":"m 694 1182 b 561 1207 678 1239 597 1254 b 593 1082 533 1169 539 1094 b 694 1182 654 1067 711 1121 z m 503 1178 b 371 1203 488 1235 407 1250 b 403 1076 342 1165 349 1090 b 503 1178 464 1063 519 1117 z m 890 -65 b 964 858 1071 211 1038 693 b 606 796 893 1019 619 911 b 610 722 604 778 606 753 b 426 726 621 569 435 553 b 414 889 424 781 424 835 b 197 1017 397 985 321 1038 b 18 793 68 996 -6 935 b 49 653 26 746 38 699 b 283 294 81 513 126 339 b 657 396 417 256 558 301 b 647 256 661 343 660 293 b 454 171 615 149 560 126 b 240 250 385 201 317 258 b 181 -146 60 228 47 -25 b 890 -65 393 -340 735 -306 z "},"Ł":{"ha":801,"x_min":null,"x_max":null,"o":"m 340 -79 b 692 1 460 -61 581 -50 b 757 47 717 13 740 26 b 782 107 771 64 779 86 b 678 349 801 207 776 328 b 601 349 653 354 626 350 b 513 313 569 346 540 328 b 482 294 501 307 492 301 b 511 421 492 338 501 379 b 518 424 514 422 515 424 b 661 497 567 444 617 468 b 706 574 690 515 704 542 b 668 669 707 607 693 646 b 632 686 658 678 646 685 b 578 679 614 688 594 685 b 629 918 600 757 622 836 b 626 981 632 939 632 960 b 585 1049 621 1007 607 1033 b 381 1107 529 1092 451 1107 b 274 1092 344 1107 308 1103 b 219 1046 251 1085 232 1067 b 190 979 207 1025 197 1003 b 156 721 167 896 160 807 b 149 553 153 665 150 610 b 97 522 129 544 110 529 b 21 444 65 504 33 479 b 88 310 0 388 29 325 b 149 324 103 306 126 313 b 160 151 150 267 154 208 b 179 25 164 110 169 67 b 239 -64 189 -10 208 -46 b 340 -79 268 -82 307 -85 z "},"ł":{"ha":635,"x_min":null,"x_max":null,"o":"m 536 83 b 483 215 553 133 533 178 b 461 414 451 274 450 343 b 478 425 467 418 472 422 b 564 481 507 442 536 460 b 617 540 585 497 608 515 b 615 599 624 560 621 581 b 581 657 608 621 600 644 b 524 664 565 669 542 669 b 524 664 524 664 524 664 b 567 1001 554 769 614 936 b 294 1061 513 1075 381 1088 b 107 544 125 1007 96 764 b 100 539 104 543 101 540 b 43 489 79 524 60 507 b 14 435 28 474 17 454 b 28 367 13 411 18 388 b 78 329 36 347 57 333 b 129 331 94 326 113 326 b 267 29 149 218 183 101 b 536 83 363 -54 493 -35 z "},"Œ":{"ha":1571,"x_min":null,"x_max":null,"o":"m 1331 -12 b 1507 93 1397 8 1476 32 b 1476 363 1543 163 1526 303 b 1131 354 1421 431 1218 357 b 1126 464 1092 353 1090 463 b 1365 482 1172 464 1326 457 b 1358 667 1417 515 1417 650 b 1147 667 1319 678 1190 668 b 1161 758 1147 667 1103 747 b 1463 742 1217 768 1410 724 b 1494 1021 1564 774 1586 967 b 1274 1051 1431 1058 1347 1050 b 943 1008 1203 1051 997 1054 b 913 972 931 999 921 986 b 129 842 692 1163 300 1100 b 161 103 -1 643 -43 308 b 828 61 338 -76 642 -85 b 840 44 832 56 836 50 b 1331 -12 931 -72 1190 -56 z m 472 349 b 456 681 335 374 365 574 b 682 640 529 769 661 754 b 472 349 710 483 629 318 z "},"œ":{"ha":1514,"x_min":null,"x_max":null,"o":"m 1303 -4 b 1450 364 1457 50 1561 243 b 1231 357 1401 418 1294 394 b 1003 425 1128 300 996 319 b 1467 678 1225 379 1465 450 b 854 881 1467 968 1103 1029 b 681 978 810 922 751 956 b 203 74 210 1128 -257 344 b 740 114 403 -43 597 -7 b 1303 -4 878 -28 1106 -72 z m 993 589 b 1192 733 951 696 1110 807 b 993 589 1285 649 1046 501 z m 475 663 b 489 411 658 797 714 447 b 475 663 343 388 356 575 z "},"Š":{"ha":957,"x_min":null,"x_max":null,"o":"m 546 1124 b 608 1167 571 1128 592 1149 b 686 1321 633 1196 688 1282 b 643 1357 685 1344 665 1361 b 540 1289 622 1353 557 1300 b 528 1289 533 1285 535 1285 b 447 1351 501 1301 474 1339 b 385 1264 385 1381 342 1333 b 479 1149 411 1222 442 1181 b 546 1124 497 1133 522 1121 z m 847 126 b 786 611 989 276 965 508 b 514 653 707 657 603 629 b 622 742 421 699 489 768 b 779 718 674 732 728 704 b 797 1021 919 760 926 950 b 222 915 628 1115 349 1064 b 426 429 3 656 111 429 b 426 343 601 429 554 310 b 88 371 350 363 140 429 b 847 126 -224 32 533 -208 z "},"š":{"ha":881,"x_min":null,"x_max":null,"o":"m 461 1064 b 522 1107 486 1067 506 1088 b 600 1261 549 1135 603 1222 b 558 1297 600 1283 581 1301 b 454 1229 538 1293 472 1240 b 443 1228 449 1225 450 1225 b 363 1292 417 1240 389 1279 b 300 1204 299 1321 256 1272 b 394 1089 326 1161 356 1121 b 461 1064 413 1074 438 1061 z m 524 -129 b 861 307 724 -90 863 108 b 529 660 860 508 694 583 b 564 719 471 686 510 732 b 635 693 589 714 610 700 b 811 885 761 657 824 772 b 575 1018 799 997 668 1017 b 90 810 397 1022 161 986 b 343 483 21 635 150 525 b 275 367 563 435 447 282 b 19 93 82 461 -10 256 b 524 -129 57 -121 335 -165 z "},"Ÿ":{"ha":944,"x_min":null,"x_max":null,"o":"m 589 1247 b 457 1272 574 1304 493 1319 b 488 1147 428 1236 433 1160 b 589 1247 549 1132 606 1186 z m 399 1243 b 265 1268 382 1300 301 1315 b 297 1142 238 1231 243 1156 b 399 1243 358 1128 414 1182 z m 489 -29 b 592 4 525 -25 558 -11 b 653 53 615 15 639 32 b 671 117 665 72 669 94 b 644 461 683 232 644 346 b 681 600 644 508 654 558 b 835 793 725 668 778 732 b 919 904 867 828 903 863 b 929 967 926 924 932 946 b 746 1122 919 1032 817 1106 b 661 1117 718 1128 688 1125 b 554 1033 617 1101 581 1069 b 488 900 525 993 507 946 b 440 781 471 861 454 821 b 433 763 438 775 435 768 b 371 935 413 819 393 878 b 324 1026 360 967 344 999 b 257 1075 308 1047 285 1068 b 138 1063 218 1083 175 1075 b 42 1008 101 1051 64 1036 b 15 942 25 990 17 965 b 29 843 11 908 19 875 b 197 565 58 742 125 649 b 289 478 225 533 253 501 b 279 429 285 458 282 440 b 247 263 268 374 257 318 b 235 110 239 213 232 161 b 263 36 236 85 244 57 b 335 -11 281 15 307 0 b 489 -29 382 -29 438 -37 z "},"Ž":{"ha":950,"x_min":null,"x_max":null,"o":"m 535 1186 b 596 1228 560 1189 579 1210 b 674 1382 622 1257 676 1344 b 632 1418 674 1406 654 1424 b 528 1351 611 1414 546 1363 b 517 1350 522 1347 524 1347 b 436 1413 490 1363 463 1400 b 374 1325 372 1443 329 1394 b 468 1210 400 1283 429 1242 b 535 1186 486 1194 511 1182 z m 610 7 b 842 67 689 19 772 28 b 872 418 946 124 958 338 b 575 390 810 479 654 426 b 864 1067 724 583 1025 882 b 600 1113 822 1114 664 1113 b 117 1044 507 1111 196 1096 b 117 656 -7 964 -22 703 b 513 713 194 629 433 693 b 124 349 397 578 235 488 b 104 -1 44 253 36 100 b 610 7 185 -124 465 -14 z "},"ž":{"ha":865,"x_min":null,"x_max":null,"o":"m 488 1035 b 549 1078 513 1039 532 1060 b 626 1232 575 1107 629 1194 b 585 1268 626 1256 607 1272 b 481 1200 564 1264 499 1213 b 469 1200 475 1196 476 1196 b 389 1263 443 1213 415 1250 b 326 1175 325 1292 282 1244 b 421 1060 353 1133 382 1092 b 488 1035 439 1044 464 1032 z m 774 26 b 700 336 878 132 847 356 b 467 303 674 333 457 288 b 697 488 492 344 656 463 b 799 849 856 586 879 743 b 442 940 739 924 536 951 b 21 636 221 917 -26 853 b 160 489 39 558 81 481 b 538 632 279 503 538 729 b 151 343 546 572 201 388 b 54 106 88 286 46 190 b 332 -35 65 0 226 -25 b 774 26 438 -44 699 -50 z "},"ƒ":{"ha":811,"x_min":null,"x_max":null,"o":"m 253 -253 b 446 -129 326 -233 394 -186 b 499 -58 465 -107 482 -83 b 571 118 533 -6 561 54 b 544 332 582 189 568 264 b 533 364 542 342 538 353 b 635 351 567 361 601 354 b 731 361 667 347 701 347 b 753 381 739 365 747 372 b 761 529 772 411 772 496 b 731 569 757 546 746 561 b 656 588 708 583 681 586 b 507 582 606 590 556 588 b 481 579 503 582 490 581 b 475 722 472 626 464 676 b 481 733 476 725 476 733 b 558 711 508 735 533 719 b 656 694 590 699 624 690 b 764 761 699 699 740 725 b 765 983 803 819 810 931 b 676 1028 743 1010 708 1021 b 400 1053 586 1050 492 1061 b 258 1013 351 1049 300 1038 b 149 889 211 985 171 940 b 131 793 136 860 132 826 b 143 582 129 722 133 651 b 147 544 144 569 146 557 b 106 543 131 544 114 544 b 57 518 88 540 68 532 b 35 461 43 503 36 481 b 44 376 33 432 35 403 b 89 328 53 357 68 336 b 172 328 115 318 144 322 b 181 158 176 271 181 215 b 167 103 178 139 174 121 b 136 60 160 86 149 72 b 31 -43 104 24 56 -1 b 90 -231 -8 -110 24 -193 b 253 -253 139 -257 200 -267 z "},"ˆ":{"ha":358,"x_min":null,"x_max":null,"o":"m 100 763 b 181 825 126 775 154 813 b 192 824 186 828 186 828 b 294 757 210 813 275 761 b 338 793 318 753 336 769 b 260 947 340 831 286 918 b 199 989 243 965 224 986 b 132 965 175 993 150 981 b 38 850 93 933 64 892 b 100 763 -7 781 36 733 z "},"ˇ":{"ha":358,"x_min":null,"x_max":null,"o":"m 228 779 b 321 893 265 810 294 851 b 260 981 365 963 322 1011 b 178 918 232 968 204 931 b 167 919 172 915 174 915 b 64 986 150 931 83 982 b 21 950 42 992 22 974 b 99 797 19 913 74 825 b 160 754 115 778 136 757 b 228 779 183 750 210 764 z "},"ẞ":{"ha":1111,"x_min":null,"x_max":null,"o":"m 397 -50 b 408 551 474 50 411 425 b 524 851 407 667 413 883 b 525 556 613 851 621 719 b 571 449 503 518 531 465 b 694 338 607 433 790 390 b 496 239 624 315 532 303 b 1001 8 343 -35 757 -189 b 881 589 1190 161 1067 433 b 975 811 921 658 978 731 b 92 943 964 1199 244 1318 b 56 36 32 794 47 197 b 397 -50 65 -119 300 -179 z "},"–":{"ha":757,"x_min":null,"x_max":null,"o":"m 410 408 b 664 414 451 411 626 396 b 679 679 744 451 756 636 b 246 694 597 724 339 694 b 46 646 157 694 83 703 b 57 428 14 596 24 479 b 410 408 113 343 308 400 z "},"—":{"ha":914,"x_min":null,"x_max":null,"o":"m 410 374 b 821 376 451 378 782 358 b 835 642 900 414 913 599 b 246 660 754 686 339 660 b 46 613 157 660 83 669 b 57 394 14 563 24 444 b 410 374 113 310 308 367 z "},"‘":{"ha":432,"x_min":null,"x_max":null,"o":"m 343 721 b 288 1025 443 817 421 992 b 231 1031 268 1031 249 1032 b 231 1032 231 1031 231 1032 b 239 1106 236 1056 243 1081 b 135 1133 232 1153 172 1163 b 111 1108 125 1126 118 1118 b 46 760 42 1019 8 869 b 343 721 82 657 261 642 z "},"’":{"ha":432,"x_min":null,"x_max":null,"o":"m 297 560 b 321 585 307 567 314 576 b 385 935 390 675 424 825 b 89 974 350 1038 169 1051 b 144 668 -11 878 10 703 b 201 663 164 664 183 663 b 201 663 201 663 201 663 b 192 588 196 638 189 613 b 297 560 199 540 260 531 z "},"‚":{"ha":431,"x_min":null,"x_max":null,"o":"m 297 -103 b 321 -78 307 -96 314 -87 b 385 271 390 11 424 161 b 89 310 350 375 169 389 b 144 6 -11 214 10 39 b 201 0 164 0 183 -1 b 201 -1 201 0 201 -1 b 192 -75 196 -25 189 -50 b 297 -103 199 -122 260 -132 z "},"“":{"ha":849,"x_min":null,"x_max":null,"o":"m 760 704 b 703 1010 860 801 838 975 b 647 1015 683 1014 665 1017 b 647 1015 647 1015 647 1015 b 656 1090 653 1040 660 1065 b 550 1118 649 1138 589 1147 b 526 1093 542 1111 533 1101 b 463 744 458 1003 425 853 b 760 704 499 640 678 626 z m 343 700 b 288 1006 443 797 421 971 b 231 1011 268 1010 249 1013 b 231 1013 231 1011 231 1011 b 239 1086 236 1036 243 1061 b 135 1114 232 1133 172 1143 b 111 1089 125 1107 118 1099 b 46 740 42 999 8 850 b 343 700 82 636 261 622 z "},"”":{"ha":847,"x_min":null,"x_max":null,"o":"m 714 565 b 738 590 722 572 731 582 b 801 940 806 681 839 831 b 504 979 765 1043 586 1057 b 561 674 404 883 426 708 b 618 668 581 669 599 668 b 617 668 617 668 617 668 b 608 593 611 643 606 618 b 714 565 615 546 675 536 z m 297 561 b 321 586 307 568 314 578 b 385 936 390 676 424 826 b 89 975 350 1039 169 1054 b 144 671 -11 879 10 704 b 201 664 164 665 183 664 b 201 664 201 664 201 664 b 192 590 196 639 189 614 b 297 561 199 542 260 532 z "},"„":{"ha":854,"x_min":null,"x_max":null,"o":"m 297 -107 b 321 -82 307 -100 314 -90 b 385 268 390 8 424 158 b 89 307 350 371 169 385 b 144 1 -11 211 10 36 b 201 -4 164 -3 183 -4 b 201 -4 201 -4 201 -4 b 192 -79 196 -29 189 -54 b 297 -107 199 -126 260 -136 z m 722 -108 b 746 -83 732 -101 739 -92 b 810 267 815 7 847 157 b 514 306 774 369 594 385 b 569 1 414 210 435 35 b 626 -6 589 -4 608 -6 b 626 -6 626 -6 626 -6 b 617 -81 619 -31 614 -56 b 722 -108 624 -128 683 -137 z "},"†":{"ha":665,"x_min":null,"x_max":null,"o":"m 500 -11 b 554 47 524 1 544 22 b 558 121 564 71 563 97 b 528 271 551 171 536 221 b 483 619 506 386 489 503 b 482 638 482 625 482 632 b 589 643 528 638 572 638 b 603 817 661 668 672 789 b 481 832 576 826 532 831 b 479 899 481 854 481 876 b 472 979 479 925 478 953 b 442 1035 468 1000 458 1021 b 406 1060 431 1044 418 1053 b 376 1068 396 1063 386 1065 b 278 1072 344 1076 310 1078 b 204 1024 249 1068 219 1049 b 181 964 192 1006 185 985 b 160 826 171 918 164 872 b 32 794 103 826 58 824 b 42 653 3 763 13 686 b 149 622 61 631 101 624 b 140 488 146 578 142 532 b 144 279 140 418 142 349 b 175 63 149 206 151 132 b 233 -11 185 33 206 4 b 500 -11 293 -47 439 -44 z "},"‡":{"ha":701,"x_min":null,"x_max":null,"o":"m 521 -11 b 575 47 544 1 565 22 b 579 121 583 71 583 97 b 547 271 571 171 557 221 b 538 329 544 290 540 310 b 604 335 568 329 593 331 b 618 508 676 358 688 479 b 511 524 594 517 556 521 b 503 619 508 556 506 588 b 503 638 503 625 503 632 b 610 643 549 638 593 638 b 622 817 682 668 693 789 b 500 832 597 826 553 831 b 500 899 500 854 500 876 b 493 979 499 925 499 953 b 463 1035 489 1000 478 1021 b 425 1060 451 1044 439 1053 b 396 1068 417 1063 406 1065 b 299 1072 365 1076 331 1078 b 224 1024 269 1068 239 1049 b 200 964 213 1006 206 985 b 179 826 190 918 185 872 b 53 794 124 826 78 824 b 63 653 22 763 32 686 b 168 622 82 631 122 624 b 163 518 167 588 164 553 b 47 486 113 517 71 513 b 57 344 18 453 28 376 b 164 314 76 322 117 314 b 165 279 164 303 164 290 b 196 63 169 206 172 132 b 253 -11 206 33 226 4 b 521 -11 314 -47 460 -44 z "},"•":{"ha":476,"x_min":null,"x_max":null,"o":"m 436 650 b 100 722 394 772 196 814 b 167 365 -17 610 8 406 b 436 650 338 322 494 485 z "},"…":{"ha":1106,"x_min":null,"x_max":null,"o":"m 707 213 b 453 267 676 304 525 336 b 503 -4 364 181 383 26 b 707 213 632 -37 751 86 z m 335 210 b 81 264 304 301 153 333 b 131 -7 -8 178 11 24 b 335 210 260 -40 379 83 z m 1072 207 b 817 263 1040 300 890 332 b 867 -8 729 176 747 21 b 1072 207 997 -42 1115 82 z "},"‰":{"ha":1799,"x_min":null,"x_max":null,"o":"m 671 -11 b 731 24 693 -6 715 7 b 788 126 757 53 772 90 b 1115 774 879 350 981 572 b 1178 875 1138 806 1161 839 b 1190 964 1190 901 1199 935 b 1140 1038 1183 993 1164 1019 b 1079 1069 1124 1053 1101 1061 b 989 1083 1051 1081 1018 1090 b 921 1036 963 1076 939 1057 b 867 964 900 1014 883 989 b 782 831 838 921 810 875 b 585 436 706 706 642 572 b 514 265 561 379 536 322 b 482 143 500 225 486 185 b 497 57 478 114 481 82 b 671 -11 529 13 617 -24 z m 568 564 b 608 854 615 650 643 763 b 35 814 508 1115 140 1072 b 79 525 -1 724 19 603 b 568 564 189 379 478 403 z m 264 678 b 361 818 229 746 286 814 b 363 672 439 824 429 711 b 264 678 328 653 282 643 z m 1743 93 b 1772 306 1778 156 1799 239 b 1393 344 1708 471 1499 471 b 981 294 1308 513 1056 478 b 1013 82 953 228 969 139 b 1363 97 1090 -21 1289 -8 b 1383 64 1368 85 1375 74 b 1743 93 1464 -43 1676 -26 z m 1149 194 b 1221 297 1124 244 1165 294 b 1221 190 1276 301 1269 219 b 1149 194 1196 175 1163 169 z m 1519 176 b 1592 279 1494 225 1536 275 b 1592 172 1647 283 1640 201 b 1519 176 1567 157 1533 150 z "},"‹":{"ha":422,"x_min":null,"x_max":null,"o":"m 331 103 b 390 189 351 114 383 165 b 368 253 397 214 390 236 b 289 310 342 272 315 290 b 213 393 258 332 225 358 b 217 401 211 396 215 400 b 251 440 229 415 240 428 b 357 551 288 478 326 511 b 389 610 371 569 385 588 b 363 676 393 633 378 658 b 326 708 357 682 335 706 b 297 713 318 713 307 714 b 126 590 251 710 157 624 b 26 428 83 544 43 489 b 24 399 24 418 25 408 b 168 181 18 333 118 224 b 228 128 188 163 207 144 b 268 97 240 117 253 104 b 331 103 288 89 313 93 z "},"›":{"ha":422,"x_min":null,"x_max":null,"o":"m 154 97 b 194 128 169 104 182 117 b 254 181 215 144 235 163 b 399 399 304 224 404 333 b 396 428 397 408 399 418 b 296 590 379 489 339 544 b 125 713 265 624 171 710 b 96 708 115 714 104 713 b 60 676 88 706 65 682 b 33 610 44 658 29 633 b 65 551 38 588 51 569 b 171 440 96 511 135 478 b 206 401 182 428 193 415 b 210 393 207 400 211 396 b 133 310 197 358 164 332 b 54 253 107 290 81 272 b 32 189 32 236 25 214 b 92 103 39 165 71 114 b 154 97 110 93 135 89 z "},"⁄":{"ha":699,"x_min":null,"x_max":null,"o":"m 196 -11 b 256 24 218 -6 240 7 b 313 126 282 53 297 90 b 642 774 406 350 506 572 b 703 875 664 806 686 839 b 717 964 715 901 724 935 b 667 1038 708 993 689 1019 b 606 1069 649 1053 626 1061 b 514 1083 576 1081 544 1090 b 446 1036 488 1076 464 1057 b 392 964 425 1014 410 989 b 307 831 363 921 335 875 b 110 436 231 706 167 572 b 40 265 86 379 61 322 b 7 143 25 225 11 185 b 24 57 4 114 7 82 b 196 -11 54 13 143 -24 z "},"€":{"ha":835,"x_min":null,"x_max":null,"o":"m 621 33 b 757 346 769 61 869 244 b 444 396 679 417 535 342 b 411 429 431 404 419 415 b 514 432 460 428 504 429 b 524 536 563 446 571 519 b 381 546 501 543 444 546 b 383 581 381 557 382 569 b 500 583 438 579 489 579 b 510 688 549 597 557 671 b 424 696 494 692 464 694 b 460 733 435 711 446 724 b 700 775 526 779 625 742 b 732 1039 803 819 821 971 b 315 1021 636 1114 421 1081 b 115 694 207 960 143 833 b 26 676 76 694 44 693 b 33 590 6 656 13 610 b 101 572 46 578 71 572 b 101 543 101 563 101 553 b 40 525 75 542 53 538 b 46 439 19 504 26 458 b 110 421 58 426 82 422 b 135 311 115 382 124 346 b 621 33 203 110 407 -7 z "},"™":{"ha":1301,"x_min":null,"x_max":null,"o":"m 458 589 b 492 665 478 608 490 638 b 485 749 493 693 490 721 b 450 913 474 804 461 858 b 446 935 449 919 447 926 b 522 971 475 938 503 951 b 560 1100 556 1003 569 1054 b 525 1156 554 1122 543 1143 b 443 1183 503 1174 472 1181 b 306 1200 397 1188 353 1199 b 99 1190 238 1204 167 1207 b 49 1161 81 1185 61 1176 b 28 1115 38 1149 32 1131 b 32 978 17 1069 24 1022 b 83 878 39 940 51 897 b 157 874 104 864 133 867 b 217 896 172 878 196 886 b 218 874 217 889 218 881 b 218 651 218 799 215 725 b 271 567 219 614 238 583 b 458 589 322 540 417 550 z m 813 626 b 813 833 833 693 817 765 b 985 832 860 782 933 783 b 996 618 978 761 958 679 b 1254 657 1057 515 1208 546 b 1135 1122 1306 783 1231 1024 b 932 1025 1081 1178 979 1088 b 731 1185 892 971 876 1236 b 599 882 638 1151 610 982 b 578 631 594 838 561 674 b 813 626 617 521 779 515 z "},"−":{"ha":757,"x_min":null,"x_max":null,"o":"m 410 408 b 664 414 451 411 626 396 b 679 679 744 451 756 636 b 246 694 597 724 339 694 b 46 646 157 694 83 703 b 57 428 14 596 24 479 b 410 408 113 343 308 400 z "},"˜":{"ha":429,"x_min":null,"x_max":null,"o":"m 275 781 b 400 879 315 785 382 843 b 388 946 414 904 414 936 b 303 914 368 953 322 925 b 268 900 297 911 276 899 b 215 931 257 900 225 925 b 157 953 199 943 178 953 b 100 926 136 951 115 940 b 32 857 75 906 54 881 b 18 824 26 851 18 832 b 57 788 17 803 36 786 b 111 804 75 788 94 796 b 165 826 121 810 154 828 b 208 799 175 825 201 803 b 275 781 228 785 253 778 z "},"|":{"ha":489,"x_min":null,"x_max":null,"o":"m 453 -137 b 474 -86 464 -122 471 -104 b 465 -22 476 -65 471 -43 b 436 56 457 4 446 29 b 379 353 400 150 389 253 b 386 842 364 515 357 682 b 403 929 392 871 397 900 b 403 1010 407 956 410 983 b 328 1074 396 1042 360 1064 b 175 1083 279 1090 224 1099 b 111 1046 151 1075 128 1064 b 67 965 90 1024 75 994 b 56 871 57 936 56 903 b 56 869 56 871 56 871 b 50 639 46 793 49 715 b 78 183 50 486 51 333 b 160 -85 94 90 117 -3 b 219 -162 176 -114 194 -142 b 296 -199 242 -181 268 -193 b 453 -137 350 -208 418 -182 z "},"\n":{"ha":0,"x_min":null,"x_max":null,"o":""}}}
